<?xml version="1.0" encoding="utf-8"?>
<!-- Generator: Adobe Illustrator 16.0.3, SVG Export Plug-In . SVG Version: 6.00 Build 0)  -->
<!DOCTYPE svg PUBLIC "-//W3C//DTD SVG 1.1//EN" "http://www.w3.org/Graphics/SVG/1.1/DTD/svg11.dtd">
<svg version="1.1" id="ade8c9af-7e2e-4eda-b5c8-b06129257226"
	 xmlns="http://www.w3.org/2000/svg" xmlns:xlink="http://www.w3.org/1999/xlink" x="0px" y="0px" width="1076.064px"
	 height="755.227px" viewBox="0 0 1076.064 755.227" enable-background="new 0 0 1076.064 755.227" xml:space="preserve">
<title>web_developer</title>
<path opacity="0.1" enable-background="new    " d="M874.951,731.689c1.315,3.947,136.839-1.316,138.155-2.631
	c1.146-1.648,2.117-3.412,2.895-5.264H874.858C874.687,727.966,874.687,730.9,874.951,731.689z"/>
<g>
	<path fill="#333333" d="M947.234,600.113c0,0-2.632,55.262-14.474,63.156s-140.787-53.945-140.787-53.945
		s10.526,84.209-5.263,80.262s-44.736,9.209-44.736,9.209s-9.21-67.104-14.474-117.102c-5.263-50,59.21-23.686,59.21-23.686
		l90.787,35.527h36.842L947.234,600.113z"/>
	<path opacity="0.1" fill="#262626" enable-background="new    " d="M947.234,600.113c0,0-2.632,55.262-14.474,63.156
		s-140.787-53.945-140.787-53.945s10.526,84.209-5.263,80.262s-44.736,9.209-44.736,9.209s-9.21-67.104-14.474-117.102
		c-5.263-50,59.21-23.686,59.21-23.686l90.787,35.527h36.842L947.234,600.113z"/>
	<path fill="#FAFAFA" d="M889.341,489.589c0,0-43.421,61.84-47.368,68.418c-3.947,6.58-123.682,93.42-123.682,93.42
		s-80.262,31.578-93.42,15.789c-13.157-15.789,82.894-38.156,82.894-38.156l103.945-86.842l44.586-64.059L889.341,489.589z"/>
	<path opacity="0.1" enable-background="new    " d="M889.341,490.764c0,0-43.421,61.84-47.368,68.418
		c-3.947,6.58-123.682,93.42-123.682,93.42s-80.262,31.578-93.42,15.789c-13.157-15.789,82.894-38.156,82.894-38.156l103.945-86.842
		l44.586-64.059L889.341,490.764z"/>
	<path fill="#A3A3A3" d="M926.181,479.062c0,0-44.736,36.842-55.262,34.211c-10.526-2.633-17.105-30.264-17.105-30.264
		l28.947-56.578L926.181,479.062z"/>
	<path opacity="0.1" enable-background="new    " d="M925.524,483.843c0,0-44.736,36.842-55.262,34.211
		c-10.526-2.633-17.105-30.264-17.105-30.264l28.947-56.578L925.524,483.843z"/>
	<path fill="#1E1E1E" d="M531.081,562.664c1.157-0.377,2.4,0.256,2.777,1.412l35.603,109.264c0.098,0.301,0.13,0.619,0.095,0.932
		l-5.366,47.219c-0.098,0.861-0.691,1.586-1.518,1.85c-1.159,0.371-2.398-0.268-2.77-1.426l-38.788-121.211
		c-0.123-0.387-0.138-0.799-0.042-1.191l8.55-35.271C529.802,563.498,530.354,562.902,531.081,562.664z"/>
	<polygon fill="#F2F2F2" points="566.977,673.796 559.084,708.005 524.874,597.482 532.767,567.218 	"/>
	<path fill="#1E1E1E" d="M705.225,723.794c-0.685-16.525-4.04-52.631-4.04-52.631l-134.208,4.764l-5.263,42.604
		c0,0,1.132,2.633,2.368,5.264c0.777,1.852,1.748,3.615,2.895,5.264c1.316,1.314,136.84,6.578,138.155,2.631
		C705.396,730.9,705.396,727.966,705.225,723.794z"/>
	<polygon opacity="0.1" enable-background="new    " points="640.661,681.691 640.661,718.531 581.452,718.531 584.083,681.691 	"/>
	<polygon opacity="0.1" enable-background="new    " points="694.606,693.531 694.606,709.322 661.713,709.322 660.044,693.462 
		660.396,693.531 	"/>
	<circle fill="#FAFAFA" cx="863.025" cy="348.802" r="59.209"/>
	<path fill="#FAFAFA" d="M909.077,354.065c-3.947,19.736,48.025,44.078,48.025,44.078l-7.237,19.079c0,0-55.262,55.262-59.209,36.84
		c-3.947-18.42-23.684-52.63-23.684-52.63S913.024,334.328,909.077,354.065z"/>
	<path fill="#FAFAFA" d="M919.602,515.904c0,0-51.314,48.684-78.945,77.631c-27.631,28.945-157.892,98.682-157.892,98.682
		s-60.525,27.631-81.578,13.158c-21.052-14.475,72.367-34.211,72.367-34.211L802.5,575.113l53.946-71.051L919.602,515.904z"/>
	<path fill="#3A3A3A" d="M1045.916,673.796c0,0-1.315,18.42-27.631,55.262S832.762,690.9,832.762,690.9
		s-31.578,26.316-78.946-22.367c-23.684-24.342-13.157-40.789,3.289-51.15c18.34-11.555,41.012-13.947,61.688-7.443l94.231,29.646
		l15.789-25C944.602,610.638,1045.916,673.796,1045.916,673.796z"/>
	<path fill="#0E0E0E" d="M810.394,696.164l44.736-6.578c0,0,14.473,2.631,14.473,24.998c0,22.369-43.42,22.369-43.42,22.369
		s-36.841,18.42-86.841,5.262c-49.999-13.156-7.895-40.787-7.895-40.787C756.448,681.691,810.394,696.164,810.394,696.164z"/>
	<path fill="#2D2D2D" d="M830.702,330.845c3.085,1.98,3.062,11.547,4.691,15.203c2.145,4.81,5.908,9.155,10.924,10.759
		c4.305,1.377,9.475,0.797,12.825,3.831c4.413,3.994,3.864,12.786,9.593,14.399c3.326,0.938,6.811-1.589,8.273-4.721
		c1.463-3.13,1.457-6.713,1.662-10.163c-0.014-2.096,0.484-4.163,1.451-6.022c2.814-4.596,9.96-4.324,14.346-1.193
		c4.386,3.132,6.967,8.127,10.258,12.395c7.356,9.54,18.391,15.513,29.542,20.068c-6.419-10.801-3.034-24.786,2.666-35.982
		c1.312-2.329,2.421-4.766,3.316-7.284c0.766-2.746,1.133-5.587,1.093-8.438c0.193-11.113-2.462-22.091-7.715-31.887
		c-3.663-6.712-8.558-12.66-13.438-18.547c-6.524-7.868-13.648-16.096-23.432-19.054c-4.709-1.424-9.704-1.504-14.623-1.574
		l-30.397-0.429c-5.212-0.073-10.499-0.138-15.54,1.188c-12.07,3.176-20.756,13.764-26.621,24.781
		c-1.549,2.909-2.987,5.924-5.148,8.412c-3.016,3.472-7.27,5.715-10.184,9.274c-4.578,5.592-5.102,13.402-4.942,20.627
		c0.052,2.383,0.18,4.857,1.3,6.961c2.073,3.895,7.063,5.424,11.443,4.903c4.382-0.521,8.378-2.647,12.408-4.444
		C818.038,332.309,826.835,328.362,830.702,330.845z"/>
	<path fill="#A3A3A3" d="M1053.81,594.849c-2.631,25,5.264,96.051,5.264,96.051c-15.789,38.158-97.367-23.684-97.367-43.42
		s-10.525-5.262-36.841-26.314s-21.053-102.631-21.053-102.631s-19.736-19.736-24.999-36.84
		c-5.264-17.105,19.736-42.105,19.736-42.105s18.421-18.42,23.684-30.262c4.06-9.135,22.994-15.138,31.44-17.405
		c2.659-0.724,5.464-0.731,8.128-0.021C1052.607,416.486,1056.404,570.21,1053.81,594.849z"/>
	<path fill="#A3A3A3" d="M974.865,480.378c-10.526,3.947-51.315,49.998-61.841,51.314c-10.526,1.316-59.21-22.367-59.21-22.367
		c-14.473-25,65.788-84.209,65.788-84.209C990.654,405.38,985.391,476.431,974.865,480.378z"/>
</g>
<g>
	<circle fill="#0E0E0E" cx="127.11" cy="272.023" r="63.023"/>
	<path fill="#FAFAFA" d="M647.649,190.173H294.478v-73.901h353.171V190.173z M296.034,188.618h350.058v-70.791H296.034V188.618z"/>
	<rect x="270.363" y="131.052" fill="#0E0E0E" width="351.615" height="72.345"/>
	<circle fill="#FAFAFA" cx="48.09" cy="56.567" r="5.446"/>
	<circle fill="#FAFAFA" cx="66.76" cy="56.567" r="5.446"/>
	<circle fill="#FAFAFA" cx="85.429" cy="56.567" r="5.446"/>
	<path fill="#FAFAFA" d="M687.532,468.082h-655V41.787h655V468.082z M34.088,466.526h651.887V43.342H34.088V466.526z"/>
	<rect x="33.309" y="65.384" fill="#FAFAFA" width="653.443" height="1.556"/>
	<path fill="#FAFAFA" d="M49.645,60.457c-3.437,0-6.222-2.786-6.222-6.224c0-3.437,2.786-6.223,6.222-6.223
		c3.438,0,6.224,2.786,6.224,6.223C55.866,57.668,53.081,60.453,49.645,60.457z M49.645,49.566c-2.577,0-4.666,2.09-4.666,4.667
		c0,2.579,2.089,4.667,4.666,4.667c2.578,0,4.668-2.089,4.668-4.667C54.31,51.657,52.222,49.569,49.645,49.566z"/>
	<path fill="#FAFAFA" d="M68.316,60.457c-3.438,0-6.224-2.786-6.224-6.224c0-3.437,2.786-6.223,6.224-6.223
		c3.438,0,6.222,2.786,6.222,6.223C74.535,57.668,71.751,60.453,68.316,60.457z M68.316,49.566c-2.578,0-4.667,2.09-4.667,4.667
		c0,2.579,2.089,4.667,4.667,4.667c2.577,0,4.667-2.089,4.667-4.667C72.98,51.657,70.893,49.569,68.316,49.566z"/>
	<path fill="#FAFAFA" d="M86.985,60.457c-3.438,0-6.222-2.786-6.222-6.224c0-3.437,2.785-6.223,6.222-6.223s6.224,2.786,6.224,6.223
		l0,0C93.204,57.668,90.42,60.453,86.985,60.457z M86.985,49.566c-2.577,0-4.667,2.09-4.667,4.667c0,2.579,2.091,4.667,4.667,4.667
		c2.578,0,4.667-2.089,4.667-4.667l0,0C91.65,51.657,89.562,49.569,86.985,49.566z"/>
	<rect x="237.687" y="66.163" fill="#FAFAFA" width="1.556" height="401.745"/>
	<rect x="311.981" y="263.686" fill="#0E0E0E" width="114.353" height="15.558"/>
	<rect x="491.678" y="263.686" fill="#0E0E0E" width="114.352" height="15.558"/>
	<path fill="#FAFAFA" d="M433.335,272.243H317.426v-17.115h115.909V272.243z M318.982,270.687h112.796v-14.003H318.982V270.687z"/>
	<rect x="311.981" y="384.261" fill="#0E0E0E" width="114.353" height="15.559"/>
	<path fill="#FAFAFA" d="M433.335,392.819H317.426v-17.114h115.909V392.819z M318.982,391.262h112.796V377.26H318.982V391.262z"/>
	<rect x="312.37" y="322.417" fill="#0E0E0E" width="294.049" height="15.558"/>
	<path fill="#FAFAFA" d="M613.422,332.53H317.815v-17.114h295.607V332.53z M319.371,330.975h292.493v-14.002H319.371V330.975z"/>
	<path fill="#FAFAFA" d="M613.031,272.243H497.124v-17.115h115.907V272.243z M498.679,270.687h112.797v-14.003H498.679V270.687z"/>
	<path fill="#FAFAFA" d="M137.776,318.563c-35.343,0-63.993-28.651-63.993-63.993c0-35.342,28.65-63.992,63.993-63.992
		c35.341,0,63.993,28.65,63.993,63.992C201.729,289.896,173.102,318.523,137.776,318.563z M137.776,192.517
		c-34.271,0-62.054,27.783-62.054,62.054c0,34.271,27.782,62.054,62.054,62.054c34.27,0,62.053-27.783,62.053-62.054
		C199.79,220.315,172.031,192.556,137.776,192.517z"/>
</g>
</svg>
