<?xml version="1.0" encoding="utf-8"?>
<!-- Generator: Adobe Illustrator 16.0.3, SVG Export Plug-In . SVG Version: 6.00 Build 0)  -->
<!DOCTYPE svg PUBLIC "-//W3C//DTD SVG 1.1//EN" "http://www.w3.org/Graphics/SVG/1.1/DTD/svg11.dtd">
<svg version="1.1" id="Capa_1" xmlns="http://www.w3.org/2000/svg" xmlns:xlink="http://www.w3.org/1999/xlink" x="0px" y="0px"
	 width="500px" height="100px" viewBox="0 0 500 100" enable-background="new 0 0 500 100" xml:space="preserve">
<g>
	<g>
		<path fill="#FFFFFF" d="M34.172,49.301c0,25.664,21.118,46.471,47.167,46.471c26.051,0,47.169-20.807,47.169-46.471
			c0-25.662-21.118-46.467-47.169-46.467C55.29,2.833,34.172,23.639,34.172,49.301z"/>
		<g>
			<path fill="#0D0D0D" d="M72.6,27.321h4.89l15.063,40.862h-6.181L75.044,35.219L63.719,68.184h-6.183L72.6,27.321z M64.478,53.767
				h21.501v5.453H64.478V53.767z"/>
			<path fill="#0D0D0D" d="M85.043,27.321h4.889l15.063,40.862h-6.183L87.488,35.219L76.162,68.184h-6.182L85.043,27.321z
				 M76.921,53.767h21.5v5.453h-21.5V53.767z"/>
		</g>
	</g>
	<circle fill="#FFFFFF" cx="81.341" cy="53.668" r="1.366"/>
</g>
<g>
	<path fill="#FFFFFF" d="M155.396,32.138h4.108l12.654,34.328h-5.194l-9.514-27.693l-9.516,27.693h-5.194L155.396,32.138z
		 M148.573,54.354h18.061v4.581h-18.061V54.354z"/>
	<path fill="#FFFFFF" d="M202.026,32.138h4.509v34.328h-4.698v-25.71l0.234,1.511l-8.45,19.431h-3.355l-8.45-18.958l0.233-1.983
		v25.71h-4.696V32.138h4.508l10.082,22.666L202.026,32.138z"/>
	<path fill="#FFFFFF" d="M223.911,32.138h4.108l12.655,34.328h-5.195l-9.515-27.693l-9.515,27.693h-5.193L223.911,32.138z
		 M217.087,54.354h18.063v4.581h-18.063V54.354z"/>
	<path fill="#FFFFFF" d="M245.868,32.138h4.817v34.328h-4.817V32.138z M249.126,61.887h7.769c2.533,0,4.497-0.655,5.888-1.971
		c1.396-1.314,2.091-3.168,2.091-5.562V44.25c0-2.392-0.695-4.245-2.091-5.561c-1.391-1.313-3.354-1.971-5.888-1.971h-7.769v-4.58
		h7.624c2.755,0,5.11,0.48,7.062,1.44c1.951,0.96,3.438,2.362,4.461,4.203s1.536,4.061,1.536,6.658v9.728
		c0,2.596-0.513,4.816-1.536,6.658c-1.023,1.84-2.514,3.241-4.472,4.201c-1.961,0.962-4.317,1.439-7.071,1.439h-7.603V61.887z"/>
	<path fill="#FFFFFF" d="M281.683,65.253c-1.825-1.048-3.236-2.53-4.235-4.44c-1.002-1.913-1.501-4.128-1.501-6.646v-9.728
		c0-2.519,0.499-4.733,1.501-6.647c0.999-1.911,2.41-3.39,4.235-4.438c1.825-1.045,3.935-1.569,6.328-1.569s4.502,0.524,6.328,1.569
		c1.825,1.048,3.239,2.527,4.239,4.438c0.999,1.914,1.499,4.128,1.499,6.647v9.728c0,2.518-0.5,4.732-1.499,6.646
		c-1,1.91-2.414,3.393-4.239,4.44c-1.826,1.045-3.935,1.568-6.328,1.568S283.508,66.298,281.683,65.253z M291.754,61.119
		c1.078-0.638,1.911-1.542,2.503-2.715c0.589-1.172,0.887-2.53,0.887-4.072V44.274c0-1.542-0.298-2.899-0.887-4.074
		c-0.592-1.171-1.425-2.077-2.503-2.713c-1.079-0.639-2.326-0.957-3.743-0.957s-2.663,0.318-3.74,0.957
		c-1.078,0.636-1.913,1.542-2.504,2.713c-0.59,1.174-0.884,2.531-0.884,4.074v10.058c0,1.542,0.294,2.9,0.884,4.072
		c0.591,1.173,1.426,2.077,2.504,2.715c1.077,0.638,2.323,0.956,3.74,0.956S290.675,61.757,291.754,61.119z"/>
	<path fill="#FFFFFF" d="M315.8,32.138h4.109l12.654,34.328h-5.193l-9.518-27.693l-9.512,27.693h-5.195L315.8,32.138z
		 M308.976,54.354h18.063v4.581h-18.063V54.354z"/>
	<path fill="#FFFFFF" d="M337.758,32.138h4.794v34.328h-4.794V32.138z M340.59,62.003h9.304c2.439,0,4.219-0.463,5.335-1.391
		c1.119-0.929,1.679-2.236,1.679-3.919v-0.072c0-1.165-0.202-2.163-0.604-2.998c-0.401-0.834-1.037-1.476-1.9-1.923
		c-0.868-0.451-1.975-0.675-3.33-0.675H340.59v-4.343h10.482c1.781,0,3.122-0.417,4.024-1.251c0.907-0.834,1.36-2.07,1.36-3.707
		c0-1.716-0.504-2.999-1.512-3.849c-1.006-0.85-2.518-1.275-4.531-1.275h-9.824v-4.462h10.696c2.222,0,4.074,0.378,5.571,1.133
		c1.493,0.756,2.612,1.826,3.354,3.211c0.738,1.385,1.106,3.038,1.106,4.958c0,1.181-0.229,2.286-0.683,3.317
		c-0.457,1.031-1.154,1.912-2.09,2.644c-0.936,0.731-2.1,1.223-3.483,1.475c1.384,0.205,2.581,0.698,3.589,1.475
		c1.007,0.78,1.778,1.752,2.315,2.916c0.534,1.166,0.8,2.424,0.8,3.778v0.07c0,1.857-0.407,3.495-1.228,4.911
		c-0.818,1.417-1.989,2.51-3.517,3.282c-1.526,0.77-3.306,1.155-5.335,1.155H340.59V62.003z"/>
	<path fill="#FFFFFF" d="M377.61,32.138h4.109l12.654,34.328h-5.193l-9.516-27.693l-9.516,27.693h-5.193L377.61,32.138z
		 M370.789,54.354h18.061v4.581h-18.061V54.354z"/>
	<path fill="#FFFFFF" d="M405.354,66.821c0,0-0.901-0.528-2.705-1.582s-3.202-2.55-4.191-4.486
		c-0.993-1.936-1.486-4.178-1.486-6.729v-9.42c0-2.55,0.493-4.792,1.486-6.729c0.989-1.936,2.388-3.436,4.191-4.498
		c1.804-1.063,3.892-1.594,6.269-1.594c1.967,0,3.776,0.421,5.43,1.263c1.653,0.842,3.033,2.035,4.144,3.577
		c1.109,1.542,1.861,3.329,2.257,5.359h-4.937c-0.298-1.07-0.798-2.026-1.501-2.87c-0.697-0.841-1.521-1.491-2.464-1.947
		c-0.946-0.457-1.923-0.685-2.929-0.685c-1.4,0-2.628,0.339-3.686,1.016c-1.053,0.676-1.871,1.625-2.453,2.844
		c-0.582,1.221-0.874,2.641-0.874,4.262v9.42c0,1.605,0.292,3.022,0.874,4.25s1.4,2.177,2.453,2.845
		c1.058,0.669,2.285,1.003,3.686,1.003c1.022,0,2.003-0.211,2.939-0.637c0.938-0.425,1.756-1.056,2.453-1.889
		c0.703-0.835,1.203-1.826,1.501-2.976h4.937c-0.396,2.031-1.152,3.817-2.267,5.359c-1.121,1.544-2.505,2.736-4.156,3.577
		c-1.655,0.843-3.455,1.264-5.407,1.264C406.541,66.821,405.354,66.821,405.354,66.821z"/>
	<path fill="#FFFFFF" d="M435.524,32.138h4.109l12.654,34.328h-5.193l-9.514-27.693l-9.518,27.693h-5.193L435.524,32.138z
		 M428.703,54.354h18.061v4.581h-18.061V54.354z"/>
</g>
</svg>
