<svg width="789" height="519" viewBox="0 0 789 519" fill="none" xmlns="http://www.w3.org/2000/svg">
<path d="M104.367 183.564C69.8256 183.564 18.877 207.167 5.06045 261.282C-12.2102 328.926 35.2842 421.036 167.692 399.448C349.512 369.803 566.357 78.501 750.578 255.526C839.81 351.954 749.138 503.072 649.832 491.558" stroke="#CCCCCC" stroke-width="2.87845" stroke-dasharray="11.51 34.54"/>
<rect width="195.734" height="71.9612" transform="matrix(-0.2074 0.978256 -1 -4.27609e-08 459.853 301.581)" fill="white" stroke="black" stroke-width="2.87845"/>
<rect width="195.734" height="51.5304" transform="matrix(-0.2074 0.978256 -1 -4.27609e-08 511.386 301.581)" fill="white" stroke="black" stroke-width="2.87845"/>
<rect opacity="0.2" width="195.734" height="52.0787" transform="matrix(-0.2074 0.978256 -1 -4.27609e-08 517.988 307.338)" fill="black"/>
<path d="M373.501 16.6133H606.655C670.244 16.6133 711.56 67.1363 698.937 129.46L664.081 301.551H315.789L373.501 16.6133Z" fill="white" stroke="black" stroke-width="2.87845"/>
<path d="M256.206 112.533C266.936 59.5579 319.45 16.6133 373.501 16.6133C427.552 16.6133 462.67 59.5579 451.94 112.533L413.656 301.551H217.922L256.206 112.533Z" fill="white" stroke="black" stroke-width="2.87845"/>
<path opacity="0.2" d="M266.133 119.151C276.862 66.1757 329.377 23.2312 383.428 23.2312C437.478 23.2312 472.597 66.1758 461.867 119.151L423.583 308.169H227.848L266.133 119.151Z" fill="black"/>
<rect width="339.657" height="17.2707" transform="matrix(1 0 -0.198513 0.980098 77.4287 284.624)" fill="white" stroke="black" stroke-width="2.87845"/>
<path d="M250.278 284.31H417.228L413.8 301.237H246.85L250.278 284.31Z" fill="white" stroke="black" stroke-width="2.87845"/>
<path opacity="0.2" d="M256.036 290.066H422.986L419.557 306.993H252.607L256.036 290.066Z" fill="black"/>
<g opacity="0.2">
<mask id="mask0" mask-type="alpha" maskUnits="userSpaceOnUse" x="333" y="313" width="112" height="193">
<path d="M373.501 313.427L333.203 505.95L405.164 505.95L444.023 313.427L373.501 313.427Z" fill="white"/>
</mask>
<g mask="url(#mask0)">
<path d="M359.297 238.213C367.035 242.776 382.393 256.43 381.915 274.543C381.316 297.184 384.506 327.97 398.169 325.456C411.833 322.943 420.064 298.657 415.827 281.466C412.437 267.713 412.649 251.1 413.178 244.512" stroke="black" stroke-width="2.87845"/>
<path d="M345.662 234.681C353.616 244.479 369.075 272.82 367.271 307.795C365.016 351.514 390.775 341.124 379.031 381.105C367.288 421.086 382.018 469.08 379.708 518.167C377.399 567.255 328.218 579.106 323.622 624.226" stroke="black" stroke-width="2.87845"/>
<path d="M311.645 224.643C323.793 235.159 346.993 264.756 342.613 299.013C337.137 341.835 345.794 327.867 352.779 354.131C359.765 380.395 343.324 400.59 332.032 415.192C320.74 429.795 308.107 452.42 313.508 473.041C318.909 493.662 307.575 533.711 285.151 539.282C262.727 544.853 242.086 590.158 238.72 635.484" stroke="black" stroke-width="2.87845"/>
<path d="M429.417 243.62C433.625 261.293 438.205 303.455 422.858 330.716C403.674 364.792 388.849 438.316 414.006 491.997C439.163 545.678 408.704 619.456 377.149 631.745" stroke="black" stroke-width="2.87845"/>
<path d="M338.968 630.737C341.811 620.457 342.41 610.161 368.803 585.894C388.352 567.921 396.762 544.707 399.507 528.291C403.987 501.504 398.447 488.031 392.362 458.43C382.819 412.013 394.481 366.003 404.477 339.831" stroke="black" stroke-width="2.87845"/>
<path d="M451.258 241.536C453.77 260.957 454.255 309.293 436.104 347.271C413.415 394.743 409.355 454.293 471.831 534.292" stroke="black" stroke-width="2.87845"/>
<path d="M358.885 463.778C351.987 446.563 357.043 423.556 360.433 414.205C363.22 404.284 335.963 424.452 336.338 460.007C336.713 495.562 367.507 485.296 358.885 463.778Z" stroke="black" stroke-width="2.87845"/>
<path d="M261.078 617.711C269.051 602.792 290.605 568.658 313.033 551.472C341.068 529.99 338.527 494.789 349.655 498.802C360.784 502.814 355.895 547.168 318.674 580.737C288.898 607.593 295.216 644.572 302.097 659.704" stroke="black" stroke-width="2.87845"/>
</g>
</g>
<g opacity="0.2">
<mask id="mask1" mask-type="alpha" maskUnits="userSpaceOnUse" x="425" y="305" width="94" height="197">
<path d="M463.763 308.306L425.313 501.138L480.85 498.391L518.189 305.614L463.763 308.306Z" fill="white"/>
</mask>
<g mask="url(#mask1)">
<path d="M505.134 648.57C498.151 640.632 483.746 616.152 481.994 581.733C479.805 538.709 460.967 554.018 466.396 512.721C471.824 471.424 456.216 427.661 453.588 379.398C450.96 331.136 487.643 309.684 487.125 264.824" stroke="black" stroke-width="2.87845"/>
<path d="M532.143 651.488C521.877 643.696 501.417 619.554 501.708 585.314C502.071 542.514 496.679 557.86 488.963 533.694C481.247 509.529 492.055 486.551 499.412 470.057C506.769 453.562 514.436 428.987 508.443 409.996C502.449 391.006 507.557 349.725 524.267 339.781C540.978 329.837 552.758 281.563 551.277 236.75" stroke="black" stroke-width="2.87845"/>
<path d="M440.051 656.747C435.237 640.387 427.942 600.257 437.276 570.619C448.945 533.572 453.731 458.994 429.611 411.794C405.49 364.594 422.253 286.618 445.369 268.292" stroke="black" stroke-width="2.87845"/>
<path d="M474.763 261.578C473.503 272.161 473.967 282.307 455.886 311.255C442.494 332.696 438.12 356.995 437.485 373.532C436.448 400.517 441.908 412.52 449.232 440.116C460.718 483.39 455.893 530.541 450.567 558.039" stroke="black" stroke-width="2.87845"/>
<path d="M423.475 663.178C419.807 644.774 415.101 597.806 425.627 557.169C438.784 506.372 436.56 447.57 381.439 382.266" stroke="black" stroke-width="2.87845"/>
<path d="M474.445 428.163C481.283 443.534 479.465 466.956 477.701 476.745C476.452 486.966 495.564 461.834 492.088 427.29C488.613 392.745 465.898 408.948 474.445 428.163Z" stroke="black" stroke-width="2.87845"/>
<path d="M535.71 258.564C530.928 274.698 517.446 312.278 501.773 333.533C482.183 360.101 487.289 393.863 478.388 392.199C469.487 390.536 469.263 346.362 494.82 306.174C515.265 274.023 507.101 239.29 500.463 225.942" stroke="black" stroke-width="2.87845"/>
</g>
</g>
<rect width="18.5867" height="106.906" transform="matrix(1 0 -0.198513 0.980098 565.75 2.22168)" fill="black" stroke="black" stroke-width="2.87845"/>
<rect width="74.347" height="38.8632" transform="matrix(1 0 -0.198513 0.980098 565.75 2.22168)" fill="black" stroke="black" stroke-width="2.87845"/>
<path d="M366.775 147.421L166.169 212.575V159.423L366.775 147.421Z" fill="white" stroke="black" stroke-width="3.42916"/>
<path opacity="0.2" d="M359.917 154.281L159.311 219.435V166.283L359.917 154.281Z" fill="black"/>
<path d="M366.774 147.42L94.1562 164.566L164.454 125.131L327.339 142.276L191.887 116.558L234.752 111.414L366.774 147.42Z" fill="white" stroke="black" stroke-width="3.42916"/>
</svg>
