<?xml version="1.0" encoding="utf-8"?>
<!-- Generator: Adobe Illustrator 16.0.3, SVG Export Plug-In . SVG Version: 6.00 Build 0)  -->
<!DOCTYPE svg PUBLIC "-//W3C//DTD SVG 1.1//EN" "http://www.w3.org/Graphics/SVG/1.1/DTD/svg11.dtd">
<svg version="1.1" id="aa7bae02-e79e-4d6b-a496-aba15f39787c"
	 xmlns="http://www.w3.org/2000/svg" xmlns:xlink="http://www.w3.org/1999/xlink" x="0px" y="0px" width="1144px" height="617.32px"
	 viewBox="0 0 1144 617.32" enable-background="new 0 0 1144 617.32" xml:space="preserve">
<title>developer activity</title>
<rect x="663.41" y="175.65" opacity="0.2" fill="#6C63FF" enable-background="new    " width="25.51" height="25.51"/>
<rect x="698.28" y="175.65" fill="#6C63FF" width="25.51" height="25.51"/>
<rect x="733.14" y="175.65" opacity="0.2" fill="#6C63FF" enable-background="new    " width="25.511" height="25.51"/>
<rect x="768.01" y="175.65" opacity="0.7" fill="#6C63FF" enable-background="new    " width="25.51" height="25.51"/>
<rect x="663.41" y="207.96" opacity="0.4" fill="#6C63FF" enable-background="new    " width="25.51" height="25.51"/>
<rect x="698.28" y="207.96" opacity="0.2" fill="#6C63FF" enable-background="new    " width="25.51" height="25.51"/>
<rect x="733.14" y="207.96" opacity="0.2" fill="#6C63FF" enable-background="new    " width="25.511" height="25.51"/>
<rect x="768.01" y="207.96" opacity="0.2" fill="#6C63FF" enable-background="new    " width="25.51" height="25.51"/>
<rect x="628.54" y="240.28" opacity="0.2" fill="#6C63FF" enable-background="new    " width="25.51" height="25.51"/>
<rect x="663.41" y="240.28" fill="#6C63FF" width="25.51" height="25.51"/>
<rect x="698.28" y="240.28" opacity="0.2" fill="#6C63FF" enable-background="new    " width="25.51" height="25.51"/>
<rect x="733.14" y="240.28" opacity="0.2" fill="#6C63FF" enable-background="new    " width="25.511" height="25.51"/>
<rect x="768.01" y="240.28" opacity="0.2" fill="#6C63FF" enable-background="new    " width="25.51" height="25.51"/>
<rect x="663.41" y="272.59" opacity="0.2" fill="#6C63FF" enable-background="new    " width="25.51" height="25.51"/>
<rect x="698.28" y="272.59" opacity="0.2" fill="#6C63FF" enable-background="new    " width="25.51" height="25.51"/>
<rect x="733.14" y="272.59" opacity="0.2" fill="#6C63FF" enable-background="new    " width="25.511" height="25.51"/>
<rect x="768.01" y="272.59" opacity="0.2" fill="#6C63FF" enable-background="new    " width="25.51" height="25.51"/>
<rect x="663.41" y="304.91" opacity="0.2" fill="#6C63FF" enable-background="new    " width="25.51" height="25.51"/>
<rect x="698.28" y="304.91" opacity="0.2" fill="#6C63FF" enable-background="new    " width="25.51" height="25.51"/>
<rect x="733.14" y="304.91" opacity="0.2" fill="#6C63FF" enable-background="new    " width="25.511" height="25.51"/>
<rect x="768.01" y="304.91" opacity="0.2" fill="#6C63FF" enable-background="new    " width="25.51" height="25.51"/>
<rect x="802.87" y="304.91" opacity="0.2" fill="#6C63FF" enable-background="new    " width="25.51" height="25.51"/>
<rect x="837.74" y="304.91" opacity="0.2" fill="#6C63FF" enable-background="new    " width="25.51" height="25.51"/>
<circle fill="#767D9F" cx="734.52" cy="363.89" r="34.87"/>
<path fill="#CE9191" d="M732.71,319.53c3.48,15.187,6.434,30.486,8.86,45.899c0.729,4.58,1.38,9.41-0.28,13.74
	c-1.39,3.61-4.22,6.43-6.44,9.59c-2.22,3.16-3.899,7.211-2.55,10.83c1.351,3.62,5.29,5.6,9.05,6.62
	c10.761,2.9,22.23,0.79,32.94-2.35c4.849-1.249,9.498-3.175,13.81-5.72c4.54-2.881,8.261-6.881,11.681-11
	c15.609-18.931,25.83-41.65,35.45-64.23c-12.541,1.141-24.864-3.824-33.11-13.34c-3.94-4.63-6.83-11.08-4.61-16.74
	c-6.51,3.57-14.24,3.81-21.25,6.25c-4.347,1.66-8.531,3.719-12.5,6.15c-4.786,2.767-9.547,5.586-14.279,8.459
	C744.07,316.95,739,319.85,732.71,319.53z"/>
<path fill="#767D9F" d="M805.64,345.71c-6.109,11.89-14.06,23.32-25.409,30.399c-11.351,7.08-26.631,9-38,2
	c-5.601-3.42-9.841-8.619-14.73-13c-4.89-4.379-11-8.129-17.57-7.56c-7.239,0.63-12.909,6.28-17.76,11.69
	c-7.359,8.22-14.47,16.79-19.68,26.52c-10,18.7-12.37,40.561-11.93,61.761c0.439,21.199,3.51,42.289,3.579,63.489
	c0.101,26.08-4.319,51.95-8.79,77.641c41.101-5.061,82.25,6,123.44,10.189c26.36,2.71,52.92,2.65,79.42,2.58
	c4.66,0,9.62-0.12,13.5-2.7c2.372-1.729,4.29-4.008,5.59-6.64c3.66-6.75,5.13-14.45,6.15-22.06c2.59-19.221,2.67-38.681,2.74-58.08
	c0.18-47,0.35-94.17-5.62-140.8c-1.47-11.471-3.351-23-7.75-33.73c-4.4-10.73-11.58-20.6-21.62-26.35
	c-6.45-3.701-21.4-10.141-29-6.41C813.67,318.811,809.73,337.75,805.64,345.71z"/>
<path fill="#4C4981" d="M808.68,478.43c-1.55-29-7.859-59.949,5.57-85.689c3.3-6.32-8.54-14.21-4.88-20.33
	c4.467-7.462,7.854-15.519,10.06-23.93c0.761-2.891,1.37-5.95,0.65-8.851c-1.33-5.29-6.561-8.44-11-11.659
	c-4.9-3.561-7.42-14.41-9-20.281c-1.58-5.87,12.57,1.2,18.26-0.89c7.9-2.89,17.94-1.07,25.82,1.86c4.4,1.619,9.18,1.76,13.87,1.88
	c9.109,0.239,18.25,0.47,27.29-0.649c4.06-0.511,8.13-1.281,12.21-1.051c10.41,0.59,19.46,7.71,25.62,16.131
	c6.159,8.42,10.08,18.229,15.13,27.35c4.21,7.6,9.229,14.779,12.819,22.689c3.181,7,5.19,14.521,7.181,22l5.13,19.19
	c0.897,2.745,1.323,5.622,1.26,8.51c-0.26,3.07-1.62,5.93-3,8.66c-5.218,10.118-11.476,19.666-18.67,28.49
	c-10.79,13.229-23.89,25.16-30.3,41c-2.5,6.17-3.891,12.729-5.16,19.27c-5.12,26.157-8.76,52.583-10.9,79.15
	c-11.685-5.407-23.933-9.502-36.52-12.21c-6.274-1.343-12.617-2.344-19-3c-5.59-0.58-12.8,0.52-18.12-1
	c-8.9-2.53-9.88-17.58-11.23-25.46c-2.159-12.551-2.59-25.32-2.67-38C809,507.19,809.45,492.8,808.68,478.43z"/>
<path fill="#4C4981" d="M613.23,424.2c4.21,24,8.85,48.07,18,70.62c-0.23,0.22-0.461,0.42-0.69,0.62c-0.81,0.689-1.65,1.34-2.53,2
	c-2.05,1.439-4.3,2.659-6,4.539c-0.644,0.72-1.151,1.55-1.5,2.45c-0.635,1.423-0.635,3.048,0,4.471
	c-4.77,2.109-10.31,1.46-15.66,1.26c-4.609-0.17-9.08,0-12.779,2.53c-5.141,3.539-6.69,10.34-7.521,16.52
	c-0.307,2.254-0.57,4.51-0.79,6.771c-0.213,2.1-0.387,4.206-0.52,6.319c-0.453,6.991-0.517,14.002-0.19,21
	c0.054,1.28,0.123,2.561,0.21,3.84c-16.34-0.39-31.229-8.909-45.32-17.189c-3.22-1.891-6.539-3.88-8.63-7
	c-1.926-3.064-2.741-6.697-2.31-10.29c0-0.51,0.09-1,0.16-1.521c0.447-2.967,1.216-5.877,2.29-8.68
	c4.408-11.936,10.906-22.992,19.189-32.65c3.58-4.18,7.61-8.27,9.28-13.52c0.73-2.29,1-4.72,1.74-7
	c3.32-9.88,15.3-14.55,19.399-24.14c1-2.29,1.46-4.801,2.7-7c1.116-1.829,2.557-3.438,4.25-4.75c0.73-0.61,1.49-1.2,2.24-1.79
	c7.026-5.507,13.797-11.323,20.31-17.45c1.214-1.141,2.414-2.293,3.601-3.46C612.002,415.227,612.36,419.756,613.23,424.2z"/>
<path fill="#4C4981" d="M714,353.221c-1.44,1.52-3,2.949-4.53,4.369l-0.41,0.37l-1.619,1.5c-2.94,2.538-5.485,5.501-7.551,8.79
	l-0.17,0.28c-5.1,9.13-3.21,20.37-1.79,30.739c1.762,12.924,2.554,25.96,2.37,39.001c-0.26,18-2.38,35.88-2.42,53.859
	c0,4.08,0.09,8.15,0.271,12.23c0.29,6.63,0.79,13.25,1.39,19.869c0.65,7.261,1.43,14.511,2.16,21.761
	c0.58,5.609,1.13,11.21,1.59,16.81c0.23,2.9,0.45,5.79,0.63,8.69c0.21,3.399,0.38,6.81,0.48,10.21l0,0
	c0.069,2.16,0.109,4.31,0.109,6.47c0,1.23,0,2.45,0,3.67c0,2.34-0.063,4.674-0.189,7c-0.134,2.993-0.337,5.993-0.61,9
	c-0.31,3.271-0.86,6.84-3.16,9.14c-0.14,0.141-0.29,0.271-0.439,0.4l-3.24-0.4c-22.335-2.674-44.884-3.075-67.3-1.199
	c0.49-3.38,0.939-6.75,1.38-10.141c0.2-1.6,0.4-3.21,0.59-4.819c0.22-1.841,0.43-3.681,0.63-5.521c0.23-2,0.44-4,0.641-6
	c0.52-5.153,0.977-10.31,1.369-15.47c0.58-7.526,1.021-15.066,1.32-22.62c0.146-3.606,0.26-7.217,0.34-10.83
	c0.113-4.479,0.167-8.963,0.16-13.45c0-4.359-0.036-8.727-0.109-13.1c0-1.44-0.061-2.88-0.181-4.311
	c-0.086-1.287-0.263-2.567-0.53-3.829c-0.742-2.912-1.746-5.75-3-8.48c-0.22-0.52-0.43-1-0.64-1.55
	c-0.12-0.271-0.229-0.55-0.34-0.82c5.76-5.13,9.86-12,13.8-18.76c6.391-10.89,12.93-22.26,14-34.84s-5.18-26.711-17.2-30.551
	c-3.27-1-6.729-1.279-10.1-1.869c-3.18-0.561-9.81-1.83-13.49-4.11c-2,2.054-4,4.069-6,6.05c0.121-3.021,0.86-5.984,2.17-8.71
	l1.42,0.07c-0.115-0.32-0.17-0.659-0.159-1c0-1.07,0.739-2.28,2.319-3.62c4.71-4,12.12-4.891,15.09-10.3
	c1.24-2.25,1.45-4.931,2.45-7.29c2.87-6.73,11.11-9.21,16.07-14.59c4.96-5.381,6.2-13,10.21-19c2.995-4.382,7.15-7.844,12-10
	c0.4-0.19,0.81-0.381,1.22-0.551c8.3-3.549,18.16-4.359,26.76-4.34c3.341,0,12,0.1,16.24,1.791c0.688,0.245,1.317,0.63,1.851,1.129
	C724.37,339.27,717.34,349.66,714,353.221z"/>
<path fill="#4C4981" d="M614.72,401.35c15.604-4.697,32.439-2.943,46.74,4.871c7.2,4,13.66,9.579,17.62,16.779
	c5.95,10.8,5.689,23.82,5.27,36.15c-0.21,6.17-0.479,12.56-3.199,18.1c-3.15,6.41-9.091,10.81-15.15,14.41
	c-3.796,2.422-7.955,4.222-12.32,5.33c-6.72,1.46-13.699,0.22-20.47-1c-7.36-1.36-15.26-3-20.37-8.48c-3-3.18-4.64-7.31-6.26-11.35
	c-2.327-5.833-4.66-11.66-7-17.48c-4.05-10.109-5.42-18.52-0.07-28.369c2.431-4.49,5.4-8.69,7.8-13.211
	C608.51,414.8,612.81,401.939,614.72,401.35z"/>
<path fill="#504F60" d="M1035,574.22v29.9c-20.513,8.521-42.518,12.873-64.73,12.8H700.58c-0.14,0.14-0.29,0.271-0.44,0.4
	l-3.239-0.4H217.17c-40.25,0-77.55-10.86-108.14-29.36V541.91l230.72-26.63h0.18l134.36,11.38l34.77,3l18.061,1.53l37.38,3.17
	l19.23,1.63l28,2.38l3.939,0.33l20.18,1.71l27.381,2.25l38.5,3.26l64.18,5.45l45.149,3.83l74.141,6.29l14.1,1.189l1.521,0.13
	l1.319,0.11l18.62,1.58l20.44,1.74l2.37,0.2L1035,574.22z"/>
<polygon fill="#9C9CA1" points="764,573.12 474.86,523.771 463.65,580.46 596.19,596.33 637,601.44 749.26,579.33 "/>
<path fill="#9C9CA1" d="M614.33,598.6l144.86-27.229c2.712-0.52,5.331,1.259,5.851,3.971c0.061,0.316,0.09,0.638,0.089,0.959l0,0
	c0.007,2.416-1.715,4.49-4.09,4.931L619.57,607.72L614.33,598.6z"/>
<path fill="#BC8484" d="M677.17,512.97c4.51-0.42,9.08-1.13,13.14-3.13c5-2.49,8.891-6.78,13.521-9.939
	c10.18-7,23.8-7.94,35.47-3.92c11.67,4.02,21.41,12.63,28.23,22.909c4.53,6.851,7.93,15.591,4.729,23.15
	c-1.098,2.311-2.481,4.475-4.12,6.44l-8.34,10.899c-1.584,2.291-3.49,4.343-5.66,6.09c-3.12,2.271-7,3.2-10.819,3.761
	c-10.15,1.479-20.48,0.64-30.71,1.319c-17.57,1.17-34.73,6.83-52.341,6.641c-10.119-0.11-20.109-2.15-30-4.19l-43.77-9
	c-7.62-1.56-16.23-3.84-19.82-10.75c-1.609-3.11-1.91-6.71-2.1-10.21c-0.521-9.64,0-20.36,6.68-27.31
	c6.28-6.521,16.21-8.58,23.71-13.4c9.181-5.91,12.21-4,21.891,0.44C635.745,511.322,656.523,514.837,677.17,512.97z"/>
<path opacity="0.05" fill="#CE9191" enable-background="new    " d="M677.17,508.295c4.51-0.42,9.08-1.13,13.14-3.13
	c5-2.49,8.891-6.78,13.521-9.939c10.18-7,23.8-7.94,35.47-3.92c11.67,4.02,21.41,12.63,28.23,22.909
	c4.53,6.851,7.93,15.591,4.729,23.15c-1.098,2.311-2.481,4.475-4.12,6.44l-8.34,10.899c-1.584,2.291-3.49,4.343-5.66,6.09
	c-3.12,2.271-7,3.2-10.819,3.761c-10.15,1.479-20.48,0.64-30.71,1.319c-17.57,1.17-34.73,6.83-52.341,6.641
	c-10.119-0.11-20.109-2.15-30-4.19l-43.77-9c-7.62-1.56-16.23-3.84-19.82-10.75c-1.609-3.11-1.91-6.71-2.1-10.21
	c-0.521-9.64,0-20.36,6.68-27.31c6.28-6.521,16.21-8.58,23.71-13.4c9.181-5.91,12.21-4,21.891,0.44
	C635.745,506.647,656.523,510.162,677.17,508.295z"/>
<path fill="#CE9191" d="M852.94,499.26c-12.28,4.75-24.631,9.521-37.49,12.351c-21.561,4.75-44.12,4-65.51,9.43
	c-11.301,2.88-22.53,7.52-34.141,6.58c-5.189-0.42-10.2-2-15.25-3.2c-28.37-7-60.62-4.729-83.66,13.271
	c-7.88,6.149-14.33,13.819-20.18,22c-4.693,6.624-3.128,15.799,3.496,20.492c0.759,0.538,1.567,1.002,2.414,1.388
	c8.96,4.12,18.558,6.681,28.38,7.569c13.13,1.16,26.32-0.699,39.38-2.56c19.38-2.75,38.771-5.51,58.101-8.6
	c6.939-1.11,13.88-2.261,20.859-3.141c50.23-6.35,101.37,1.37,151.73-3.93c5.09-0.54,10.27-1.24,14.899-3.41
	c11.72-5.5,17.521-20,15.101-32.74c-2.42-12.739-11.761-23.33-23-29.83c-9.42-5.47-19.58-7.68-30.07-10
	C868.26,492.66,862.32,495.66,852.94,499.26z"/>
<path opacity="0.1" enable-background="new    " d="M960.67,423.1c5.54,7.261,6.72,17,6.12,26.091c-0.6,9.09-2.76,18.08-3.08,27.21
	c-0.44,12.52,2.58,25,2.07,37.479c-0.36,8.73-2.431,17.29-4.88,25.67c-2.891,9.891-7.07,20.521-16.2,25.271
	c-12.12,6.31-37.54,2.76-50.29,7.7c1.16-7.23,12.28-17.7,13.439-24.931c0.801-5,1.61-10.14,0.75-15.149
	c-1.1-6.391-4.85-12.061-9.3-16.78c-7.08-7.51-16.319-13.16-26.47-15s-35-0.33-43.12,6.08c-1-6.62,17.6-13,24.14-14.431
	c3.261-0.729,7-0.319,9.61-2.39c5-3.92,1.37-11.729,1.61-18c0.189-5,3.109-9.58,3.699-14.58c1-8-4.22-16.149-2.17-24
	c0.761-2.899,2.45-5.45,3.62-8.21c3.561-8.45,2-18.09,0.101-27.069c-1.181-5.641-2.33-12,0.81-16.811
	c2.91-4.49,11.17,11.5,16.46,10.76c17.47-2.449,33.28-15.4,47.391-4.8c7.189,5.399,8.13,11,11,18.71
	C948.77,413.26,956,417.02,960.67,423.1z"/>
<path fill="#4C4981" d="M963.67,423.1c5.54,7.261,6.72,17,6.12,26.091c-0.6,9.09-2.76,18.08-3.08,27.21
	c-0.44,12.52,2.58,25,2.07,37.479c-0.36,8.73-2.431,17.29-4.88,25.67c-2.891,9.891-7.07,20.521-16.2,25.271
	c-12.12,6.31-37.54,2.76-50.29,7.7c1.16-7.23,12.28-17.7,13.439-24.931c0.801-5,1.61-10.14,0.75-15.149
	c-1.1-6.391-4.85-12.061-9.3-16.78c-7.08-7.51-16.319-13.16-26.47-15s-35-0.33-43.12,6.08c-1-6.62,17.6-13,24.14-14.431
	c3.261-0.729,7-0.319,9.61-2.39c5-3.92,1.37-11.729,1.61-18c0.189-5,3.109-9.58,3.699-14.58c1-8-4.22-16.149-2.17-24
	c0.761-2.899,2.45-5.45,3.62-8.21c3.561-8.45,2-18.09,0.101-27.069c-1.181-5.641-2.33-12,0.81-16.811
	c2.91-4.49,8.601-6.189,13.89-6.939c17.712-2.396,35.658,2.234,50,12.899c7.19,5.399,8.131,11,11,18.71
	C951.77,413.26,959,417.02,963.67,423.1z"/>
<path fill="#9C9CA1" d="M302,375.721l54.37,200.939c1.366,5.041,5.711,8.709,10.91,9.21L612,609.38
	c6.894,0.665,13.021-4.385,13.686-11.278c0.136-1.408,0.032-2.828-0.306-4.201L565.84,351.52c-1.463-5.949-7.011-9.971-13.12-9.51
	l-239.59,17.92c-6.904,0.537-12.067,6.569-11.531,13.475C301.66,374.187,301.794,374.962,302,375.721z"/>
<ellipse fill="#FFFFFF" cx="787.11" cy="387.68" rx="26.899" ry="27.25"/>
<path fill="#FFFFFF" d="M809.2,337.971c0,0,5.67,16.859-11.061,23.949l-2.14,3.74L806.48,376c0,0,12.92-23.57,11.52-31.939
	C818,344.061,816,335.561,809.2,337.971z"/>
<circle fill="#7B7BEF" cx="790.2" cy="388.99" r="25.94"/>
<path fill="#6C63FF" d="M818.13,347.891l-4.12-6.801l-6-0.85c1.28-22.391-4.529-29.061-4.529-29.061l-1.351-0.13l-5.88-0.569
	L785.19,299v-3.26c15.54,1.85,24.13,9.23,28.77,17.88C822.16,328.8,818.13,347.891,818.13,347.891z"/>
<path opacity="0.1" stroke="#4C4981" stroke-miterlimit="10" enable-background="new    " d="M802.18,306.93v4.12l-5.88-0.569
	L785.24,299C785.24,299,802.35,302.83,802.18,306.93z"/>
<path opacity="0.1" stroke="#4C4981" stroke-miterlimit="10" enable-background="new    " d="M818.13,347.891l-4.12-6.801v-27.43
	C822.16,328.8,818.13,347.891,818.13,347.891z"/>
<ellipse transform="matrix(-0.5 -0.866 0.866 -0.5 767.2917 1196.7136)" fill="#FFFFFF" cx="729.106" cy="376.859" rx="26.32" ry="14.43"/>
<path fill="#7B7BEF" d="M733,374.66c7.27,12.59,16.19,21,9.29,25s-27,2-34.271-10.6c-7.27-12.601-0.67-30,6.23-34
	S725.72,362.04,733,374.66z"/>
<path opacity="0.1" enable-background="new    " d="M797.73,283.96c0,40.229-27.53,79-67.761,79c-40.233,0-72.85-32.616-72.85-72.85
	s32.616-72.85,72.85-72.85l0,0C770.2,217.3,797.73,243.72,797.73,283.96z"/>
<circle fill="#CE9191" cx="729.97" cy="288.15" r="72.85"/>
<path fill="#26252D" d="M723.57,255.87c8.67,3.19,13.8,12.15,21.58,17.14c11,7,25.319,5.19,37.88,1.73
	c7-1.91,14.319-4.24,21.21-2.12c1.014,0.449,2.131,0.608,3.229,0.46c1.5-0.43,2.24-2.09,2.73-3.57c8.52-25.4,4.689-54.17-8.17-77.67
	c-3.32-6.06-7.3-11.92-12.78-16.13c-4.32-3.31-9.4-5.48-14.52-7.33c-9.357-3.36-19.035-5.75-28.881-7.13
	c-1.738-0.316-3.515-0.373-5.27-0.17c-2.41,0.39-4.57,1.69-6.72,2.85c-9.209,4.936-19.42,7.709-29.86,8.11
	c-14,0.53-30-2.77-40.79,6.21c-13,10.77-9.76,31.78-18.19,46.4c-5.579,9.67-16.34,16.69-18.109,27.7
	c-0.461,3.365-0.247,6.789,0.63,10.07c4.12,16.94,20.521,30.06,38,30.37c2.685,0.205,5.372-0.346,7.76-1.59
	c1.564-1.067,2.945-2.381,4.09-3.89C688.84,273.75,701.94,247.91,723.57,255.87z"/>
<path opacity="0.1" enable-background="new    " d="M810.2,262.14c-0.49,1.48-1.23,3.14-2.73,3.57
	c-1.099,0.148-2.216-0.011-3.229-0.46c-6.891-2.12-14.25,0.21-21.2,2.12c-12.57,3.46-26.92,5.31-37.88-1.73
	c-7.79-5-12.91-14-21.59-17.14c-21.63-8-34.73,17.88-46.21,31.44c-1.145,1.509-2.526,2.823-4.091,3.89
	c-2.387,1.244-5.075,1.795-7.76,1.59c-17.42-0.31-33.83-13.43-38-30.37c-0.229-1-0.43-2-0.58-3c0,0.09,0,0.17-0.05,0.26
	c-0.461,3.365-0.247,6.789,0.63,10.07c4.12,16.94,20.53,30.06,38,30.37c2.685,0.205,5.373-0.346,7.76-1.59
	c1.564-1.067,2.946-2.381,4.091-3.89c11.479-13.56,24.58-39.4,46.21-31.44c8.68,3.19,13.8,12.15,21.59,17.14
	c11,7,25.31,5.19,37.88,1.73c7-1.91,14.31-4.24,21.2-2.12c1.014,0.449,2.131,0.608,3.229,0.46c1.5-0.43,2.24-2.09,2.73-3.57
	c3.437-10.393,4.954-21.324,4.479-32.26C814.386,245.691,812.877,254.087,810.2,262.14z"/>
</svg>
