<?xml version="1.0" encoding="utf-8"?>
<!-- Generator: Adobe Illustrator 16.0.3, SVG Export Plug-In . SVG Version: 6.00 Build 0)  -->
<!DOCTYPE svg PUBLIC "-//W3C//DTD SVG 1.1//EN" "http://www.w3.org/Graphics/SVG/1.1/DTD/svg11.dtd">
<svg version="1.1" id="a1bb6ffe-8d83-4899-8fa0-fcb3165ea164"
	 xmlns="http://www.w3.org/2000/svg" xmlns:xlink="http://www.w3.org/1999/xlink" x="0px" y="0px" width="884.594px"
	 height="628.601px" viewBox="0 0 884.594 628.601" enable-background="new 0 0 884.594 628.601" xml:space="preserve">
<title>work_in_progress</title>
<ellipse fill="#E6E6E6" cx="75.177" cy="619.601" rx="75.139" ry="9"/>
<rect x="195.924" y="27.051" fill="#E6E6E6" width="688.377" height="440.869"/>
<rect x="215.607" y="71.939" fill="#FFFFFF" width="649.01" height="359.491"/>
<rect x="195.923" fill="#0E0E0E" width="688.378" height="29.245"/>
<circle fill="#FFFFFF" cx="217.655" cy="14.952" r="5.42"/>
<circle fill="#FFFFFF" cx="238.229" cy="14.952" r="5.42"/>
<circle fill="#FFFFFF" cx="258.803" cy="14.952" r="5.42"/>
<path fill="#7F77FF" d="M733.008,375.918c-0.221-0.019-0.441-0.038-0.684-0.063C732.581,375.888,732.803,375.907,733.008,375.918z"
	/>
<path fill="#7F77FF" d="M742.282,344.349c-0.008,0-0.014,0.006-0.023,0.006C742.266,344.392,742.274,344.38,742.282,344.349z"/>
<path fill="#0E0E0E" d="M764.561,347.274c0.115-0.254,0.277-0.485,0.476-0.68l0.149,0.532c0.115-1.091,0.043-2.191-0.213-3.256
	c0.231-1.413,0.367-2.841,0.402-4.272c1.125-0.604,0.605-6.063,0.669-8.693c-1.483,0.214-1.251-3.168-2.448-0.083
	c0.085-0.181,0.137,0.721,0.202,2.331c0.022,0.379,0.075,0.755,0.157,1.124c-0.042-0.054-0.084-0.117-0.138-0.18
	c0.032,1.729,0.063,3.987,0.106,6.551c-1.012-2.254-1.214-4.79-0.571-7.177c-0.954-1.347-1.939-2.841-2.397-3.679
	c2.078-3.604,3.201-10.558,4.473-11.522c-0.824-8.045-0.55-18.954-3.35-24.02c-0.358-2.289,0.808-2.63,1.253-3.488
	c0.275,1.325,0.232,2.894,0.635,3.614c-0.72-4.579-0.274-13.558-2.235-14.65c0.879-5.767,1.802,3.245,1.484-4.685l0.592,1.071
	c3.075-15.318-4.705-25.007-1.164-41.745c-0.139,0.624-0.266,0.995-0.498,1.166c1.769-19.698-1.665-40.602,1.145-60.042
	c0.561-5.523-0.68-6.127-1.635-9.498l1.603-1.199l-1.844-5.767c-1.357-8.173,3.921-14.152,1.366-24.508l-1.082,1.334
	c0.212-3.719-0.635-11.775,0.605-11.151c-0.665-0.719-0.878-1.747-0.553-2.671l0.838-0.115l-1.44-9.138
	c0.603-7.071,3.328,1.112,3.486-9.224c-0.318-3.838-2.437-10.929-2.999-9.487c-0.032,1.548-0.52,3.955-1.357,4.07l-0.433-3.508
	c-0.162-0.043-0.31-0.085-0.469-0.139v-0.563h-1.515c-0.638-0.27-1.357-0.27-1.993,0h-38.004l0.414-0.411l-1.253,0.411h-5.362
	c0.16-0.317,0.667-0.582,1.727-0.71c-3.899-1.091-3.455,0.786-6.794-0.435c-0.371-0.189-0.213-0.296,0.137-0.38l-3.814,0.656
	c0.754-0.465-0.627-1.558,1.706-1.24c-6.827-1.271-11.013,1.655-13.59-0.021l0.573-0.126c-7.092,0.552-4.094,1.177-5.11,2.257
	h-4.433l-0.888-0.742l-1.198-0.996c-0.408-0.376-0.853-0.707-1.326-0.995c-0.364,0.512-0.69,1.049-0.975,1.61
	c-1.102-0.052-3.37-0.169-3.264-0.827c-1.941,0.562-1.539,0.732-1.071,0.901c0.507,0.169,1.123,0.328,0.338,0.859
	c-1.242-0.294-2.51-0.468-3.782-0.521c-0.141,2.354,0.03,5.206-0.021,7.379c-0.055,2.268-0.321,3.73-1.359,4.188
	c1.229,1.684,0.954-4.505,1.813,0.518c-2.776,1.41,0.465,5.873-0.806,10.061c-1.432-1.208-0.667-5.365-1.949-1.039
	c0.402,0.427,0.699,0.943,0.867,1.505c0.12,0.568,0.136,1.154,0.042,1.729c-0.188,1.017-0.477,2.017-0.856,2.979
	c-0.629-0.159-1.279-0.197-1.92-0.119c0.635,0.966-0.784,1.167-2.915,1.209c-1.283,0-2.756,0.011-4.26,0.011
	c-1.582,0.021-3.203,0.063-4.729,0.222c0.382-0.647-11.459-1.049-17.119-1.749l0.158-0.328c-1.092,1.951-6.933,1.578-11.195,1.983
	c0.169-1.167,0.934-1.624,3.244-2.142l-4.006,0.009c-0.944,0.625-2.185,0.955-4.781,1.177l1.006-1.464
	c-2.659,0.045-5.34,0.478-8.215,0.773c-1.44,0.149-2.915,0.256-4.473,0.277c-0.774,0.011-1.568-0.011-2.385-0.054
	c-0.402-0.02-0.818-0.053-1.229-0.096c-0.468-0.054-0.934-0.106-1.398-0.159c-0.151,0.339,0.369,0.753,0.697,1.177
	c0.408,0.411,0.776,0.858,1.104,1.335c0.189,0.265,0.228,0.613,0.094,0.911h-3.708c0.009-0.402,0.253-0.761,1.038-0.954
	c-1.092,0.313-2.237,0.388-3.36,0.223c0.85-0.403,1.835-0.816,2.947-1.229c-4.028-0.541-1.654,1.028-4.482,0.911
	c-0.586-1.039-2.717-0.741-2.949-1.568c0.797-0.106,3.086,0.424,4.104,0.021c-2.111-0.106-4.604-0.35-6.893-0.69
	c-0.135,1.021-0.442,2.01-0.911,2.927c0.594,0.052,1.41,1.049,1.536,3.773c0.043,3.488-0.274,4.05-0.669,4.272
	c-0.189,0.106-0.401,0.117-0.602,0.393c-0.124,0.186-0.219,0.39-0.287,0.604c-0.109,0.284-0.188,0.58-0.234,0.88
	c0.722,1.294-0.032,4.685,1.539,4.781c-0.011,1.559-0.744,1.846-1.166,2.448c0.688,2.758,0.2,12.871,1.864,9.765l0.106-0.71
	c0.034,0.137,0.043,0.287,0.075,0.456c0.435,2.736,0.605,5.509,0.509,8.279c-0.064,2.31-0.287,4.505-0.498,6.436
	c-1.559-0.139-3.001-0.256-4.346-0.319c-0.68-0.023-1.336-0.043-1.994-0.023l-1.272,0.032c-0.446,0.033-0.901,0.054-1.345,0.076
	l0.021-0.519c-5.354,0.593-11.916,0.348-15.731,1.482c-1.581-0.009-3.733-0.963-3.054-1.578c-4.092,0.392-4.548,0.975-10.452,0.116
	c4.102-0.912-1.422-0.816,4.208-0.667c-5.31-0.456-6.519-1.294-12.221,0.137c1.938-1.346-3.998-1.685-6.52-1.294l3.719,0.966
	c-2.612,0.142-5.231,0.126-7.843-0.043l1.355-1.758c-5.428-1.071-10.335-0.16-14.915,0.572c-2.193,0.4-4.415,0.63-6.646,0.688
	l-0.807-0.011l-1.026-0.052c-0.795-0.042-1.601-0.106-2.419-0.202c-1.785-0.212-3.557-0.525-5.309-0.932
	c-1.909,0.613,0.635,0.826,2.978,1.071c2.408,0.244,4.59,0.518,2.937,1.24c-3.503-0.232-6.991-0.681-10.44-1.347
	c-0.686,2.31-1.163,4.674-1.433,7.07c-0.127,1.388-0.17,2.65-0.17,3.764c0,0.551,0.011,1.08,0.043,1.568
	c0.011,0.223,0.021,0.551,0.042,0.656c0.021,0.128,0.043,0.265,0.063,0.393c0.183,0.918,0.47,1.81,0.859,2.662
	c1.012,2.149,1.384,4.545,1.07,6.9c0.627-0.923,2.312-1.781,2.896,3.571c-0.127,2.969-1.039,4.591-1.856,4.739
	c-0.455,0.096-0.88-0.276-1.123-1.103c-0.074-0.209-0.127-0.425-0.159-0.646c-0.053-1.197,0.148-1.772,0.36-1.729
	c-0.232-1.61-0.497-3.731-1.177-1.749l0.625,0.646c-0.198,0.909-0.334,1.83-0.403,2.757c-0.285,2.851-0.454,6.169-1.208,4.992
	c0.521,3.234,0.912,2.122,1.219-0.031c-0.667,5.724,0.076,9.285-0.497,15.488c0.35-1.05,1.092-2.026,1.081-0.975
	c-0.784,9.688,1.198,4.272,1.473,10.834c-0.964,3.731-2.289-1.336-1.494,5.267c-0.647,4.04-1.665,0.86-2.172-0.741
	c0.499,2.747,0.507,5.562,0.02,8.311c-0.03,0.18-0.053,0.36-0.083,0.53c-0.021,0.128-0.043,0.267-0.064,0.393l-0.042,0.222
	c-0.011,0.063-0.021,0.054-0.032,0.074l-0.085,0.106c-0.096,0.108-0.203,0.204-0.318,0.287c-0.148,0.088-0.29,0.187-0.424,0.297
	c-0.105-0.169-0.234-0.322-0.381-0.458c0.13,0.149,0.191,0.345,0.17,0.542c0.129,0.085,0.265,0.164,0.401,0.233
	c0.273,0.142,0.562,0.252,0.858,0.328c-0.211,0.308-0.222,0.616-0.636,0.234c-0.047-0.033-0.09-0.074-0.127-0.117
	c0.37,0.553,0.813,1.057,1.314,1.496c0.552,0.561,1.209,1.167,0.584,1.727c-0.871-0.217-1.776-0.252-2.661-0.106
	c-0.223,0.011-0.446,0.011-0.657,0c-0.335-0.019-0.667-0.057-0.997-0.117c-0.538-0.037-1.029-0.319-1.336-0.764
	c0.986,0.075,1.695,0.097,2.227,0.086c0.286,0,0.391-0.043,0.476-0.117c0.148-0.128,0.043-0.372-0.052-0.624
	c-0.181-0.436-0.244-0.923,0.073-1.167c-0.049,0.013-0.097,0.019-0.147,0.022c-0.094-0.005-0.187-0.022-0.275-0.054
	c-0.402-0.031-0.817-0.074-1.25-0.117c-0.275-0.191,0.264-0.35,0.773-0.445c-0.573-0.117-1.081-0.202-1.526-0.265
	c-0.879-0.16-1.781-0.16-2.661,0c-1.931,0.455-1.515,2.142-6.985,2.11c0.974-0.934-1.802-1.782-3.064-1.581
	c3.128,0.021,1.495,1.57-1.366,2.29c-4.973-0.73-5.396,0.541-8.004,0.456l2.968,0.35c-1.008,0.944-3.488,0.816-6.943,1.114
	c-0.096-0.234,0.169-0.36,0.551-0.456c-3.574,0.55-7.854-1.909-12.553-0.997c-0.046,0.003-0.091,0.009-0.137,0.021
	c-2.48-0.636-0.243-1.761-2.427-2.194c-5.999,1.219-6.498-1.294-12.816-0.287c1.822,1.272,2.143,0.964-2.31,2.195l10.387-0.892
	l-6.667,1.834c3.138,0.02,6.615-0.795,8.491-0.573c-3.18,1.029-2.852,0.71-1.348,1.759c-4.291-1.896-8.5,1.114-13.451-0.169
	l0.149-3.138c-3.15-0.501-6.363-0.485-9.511,0.043l-1.208,0.159l-0.602,0.074l-0.162,0.022l-0.243,0.021l-0.496,0.042
	c-1.306,0.096-2.632,0.202-3.998,0.308c-2.681,0.179-5.417,0.307-8.543,0.287c-0.011,1.399-0.056,2.852-0.129,4.366l0.499-3.995
	l0.391,0.042c-0.046,0.071-0.11,0.125-0.189,0.159c0.453,1.966,0.603,3.989,0.444,6c0,0.182-0.011,0.371-0.011,0.564v0.011
	c-0.021,0.995-0.053,2.035-0.063,3.073c0,0.615,0.011,1.219,0.032,1.812c0.011,0.297,0.031,0.584,0.042,0.87l0.032,0.412
	l0.045,0.288c-1.051-0.297-1.434,1.664-2.079,3c0.189-0.043,0.285,0.382,0.349,1.049c0.064,0.276,0.096,0.616,0.169,1.018
	c0.196,1.102,0.717,2.122,1.495,2.926c-0.16,0.16-0.344,0.299-0.539,0.413c-0.652-0.244-1.29-0.522-1.909-0.838
	c-0.65-0.137-1.326-0.059-1.929,0.224c-0.139,0.063-0.276,0.137-0.415,0.212c-0.107,0.059-0.226,0.097-0.348,0.117
	c-0.149,0.042-0.298,0.085-0.437,0.126c-0.582,0.18-1.135,0.37-1.674,0.561c-2.563,1.06-5.331,1.535-8.098,1.39
	c2.257-1.134-1.156-1.876,3.878-2.693c-2.512-0.011-4.76-0.202-4.801,0.521c-0.276-0.102-0.567-0.145-0.86-0.128
	c-1.262,0.011-3.286,0.498-5.139,0.72c-0.89,0.14-1.795,0.14-2.685,0c-0.197-0.031-0.39-0.088-0.571-0.169
	c-0.112,0.051-0.222,0.108-0.328,0.169c-1.059,0.961-2.47,1.43-3.892,1.294c-0.13-0.075-0.171-0.242-0.096-0.371
	c0.008-0.011,0.014-0.02,0.021-0.031c-0.561,0.433-4.135,0.678-1.854,1.749c-3.339-1.411-7.822-1.559-12.393-1.496
	c-5.989,0.076-12.105,0.521-15.923-1.071c-2.733,0.171-5.745,0.352-8.701,0.49c-1.475,0.052-2.937,0.115-4.335,0.169
	c-0.701,0.02-1.388,0.042-2.046,0.063c-0.743,0.011-1.453,0.031-2.132,0.042c0.213-0.159,0.213-0.285,0.328-0.36
	c0.26-0.102,0.547-0.122,0.818-0.052c-0.191-0.021-0.317-0.054-0.552-0.063c-0.234-0.022-0.467-0.033-0.688-0.054
	c-0.445-0.021-0.86-0.031-1.24-0.042c-0.652-0.003-1.305,0.032-1.952,0.104c-0.792,0.079-1.559,0.314-2.258,0.7
	c-1.08,0.898-2.431,1.405-3.836,1.442c0.049,1.14-0.006,2.283-0.169,3.414c-0.424,0.921-0.69,1.134-0.869,0.826
	c-0.207-0.628-0.31-1.286-0.309-1.949c-0.095-1.686-0.062-3.594-0.382-2.174c-1.716-0.763-1.599,3.285-1.303,7.717
	c0.148,2.576,0.339,3.699,0.371,5.321c0.076,1.478-0.129,2.957-0.605,4.357l-0.2-1.271c-1.177,4.006,1.303,9.785,1.06,16.334
	c0,0-0.308-0.317-0.52-0.042c1.749,4.483,2.333,12.966,2.821,19.261c-1.348-1.961-0.712-2.86-2.08-1.663
	c0.191,2.83,2.195-0.828,2.578,4.813c-0.732,1.835-1.379,5.903-2.841,6.446l-0.084-5.323c-1.887,2.726,0.074,6.881-0.256,9.69
	l-0.826-0.36c0.265,8.151,2.342,8.269,2.194,17.024l0.625-0.901c2.067,4.791-1.155,4.016,0.382,8.787l-2.099,1.453
	c0.508,3.158,2.024,11.057,2.416,16.728c-1.546-3.212-2.341-9.838-3.264-13.94c-0.011,3.127,0.159,10.644,1.188,12.275
	c-0.202-1.262-0.711-2.85-0.394-4.103c1.644,3.838,2.449,8.894,2.418,15.138c-1.325-0.358-1.898,1.251-2.172,3.752
	c-0.012,0.16-0.034,0.32-0.043,0.49c-0.011,0.232-0.032,0.476-0.043,0.719c-0.021,0.499-0.042,1.008-0.074,1.538
	c-0.021,1.062-0.052,2.185-0.086,3.329c-0.053,2.344-0.105,4.802-0.157,7.187c4.844,0.159,9.296,0.509,11.883,1.602l0.87-0.074
	l0.54-0.064l1.038-0.106c0.69-0.063,1.379-0.117,2.068-0.159c1.379-0.096,2.756-0.126,4.146-0.137
	c2.766-0.011,5.563,0.104,8.417,0.264c5.704,0.318,11.629,0.796,18.064,0.668c-4.559-3.147,3.751-0.083,2.969-3.327
	c2.966-0.202,4.11-0.148,4.388,0.052l-0.436-0.095c0.158,0.043,0.286,0.073,0.457,0.116v-0.011l9.074,1.931
	c2.152,0.943-2.854,0.709-2.577,1.44c6.562,0.254,2.758,1.378,7.093,2.237c-0.891-1.155,2.278-1.664,6.021-1.219l-5.269-1.496
	c9.168-1.727,7.928,2.726,17.164,1.008l-2.927,1.029c4.748-0.604,17.492,0.021,22.145-2.587c0.837,0.371,1.949,1.26-0.139,1.494
	c11.333,0.393,25.22-2.767,34.029-1.166l-0.859,0.795c2.11-0.232,3.677-1.494,6.33-0.699c-0.14,0.329-0.859,0.795,0.126,0.836
	c1.112-0.263,5.608-1.388,8.417-0.921l-2.396,0.891c6.952,0.657,11.873-0.371,16.876-1.368c3.081-0.669,6.204-1.118,9.349-1.345
	c-0.021,2.331,8.672,3.095,13.018,3.466l-0.158,0.328c5.159,0.095,10.319-0.157,15.444-0.753c3.934-0.435,7.75-0.986,11.789-1.442
	h0.011c0.253-0.03,0.507-0.063,0.773-0.096c0.933-0.104,1.886-0.2,2.851-0.295c0.297-0.033,0.605-0.063,0.913-0.096
	c0.658-0.053,1.323-0.105,2.003-0.159c3.374,0.922,6.85,1.414,10.347,1.462c8.289,0.402,18.721,0.074,26.608,1.019
	c-1.824-0.424,0.296-1.824,2.405-2.057c2.618,0.445,7.112-1.366,7.293,0.17c0.013,0.117,0.006,0.233-0.021,0.35l-0.944-0.042h-0.053
	l0.011,0.011c2.109,2.088,7.834,1.536,12.309,1.59l0.731-2.799c11.712,4.07,30.688-1.495,37.081,2.15
	c2.829-0.698,6.327-0.688,9.127-1.388L653,401.94c7.129,0.453,14.275,0.523,21.414,0.213l-1.973,1.081
	c5.459,0.096,6.89-4.335,11.937-4.42l1.504,2.237c9.53-0.032,19.167,1.938,28.579-0.096c-0.148,0.328-0.434,0.974-1.973,1.07
	c4.337,0.053,16.507,1.421,15.829-1.272c1.036,1.517,9.984-0.139,14.852-0.975l-0.795,1.474c2.172-0.944,3.286-1.548,4.62-1.972
	c0.761-0.24,1.534-0.422,2.321-0.541c0.49-0.073,0.955-0.149,1.624-0.212c0.805-0.065,1.717-0.128,2.744-0.202
	c1.824,0.18,2.131,0.997-0.011,0.88c1.595,0.209,3.212,0.139,4.78-0.211c1.318-0.42,2.689-0.637,4.072-0.647
	c-0.007-1.066,0.051-2.131,0.169-3.19c0.317,1.229,0.637,2.534,0.943,3.911c0.118-2.268,0.024-4.545-0.285-6.794
	c-0.256-1.357-0.658-2.365-1.197-4.241c-0.043-0.254-0.077-0.53-0.099-0.816c-0.02-0.266-0.042-0.528-0.063-0.816
	c-0.02-0.466-0.03-0.974-0.02-1.484c0.032-1.054,0.137-2.105,0.308-3.147c0.328-2.046,0.911-3.785,1.579-4.144
	c-0.817-0.669-1.908-3.362-1.526-6.268c0.509-0.392,0.826,0.659,0.977,1.198c1.005-8.235-1.719-12.254-0.268-17.916
	c0.449-0.126,0.79-0.494,0.881-0.952c-0.032,6-0.106,10.917-0.202,11.311c1.347-0.074,1.591-5.257,3.456-1.082
	C766.151,359.676,763.924,352.425,764.561,347.274z M765.759,336.301c0.211,1.761-0.085,2.344-0.395,2.587
	c-0.02-0.826-0.074-1.801-0.179-3.073c-0.054-0.042-0.117-0.149-0.18-0.202C765.313,335.775,765.57,336.012,765.759,336.301z
	 M705.081,93.696c0.179,0.057,0.35,0.136,0.508,0.232h-2.247C703.883,93.846,704.455,93.77,705.081,93.696L705.081,93.696z"/>
<polygon fill="#7F77FF" points="600.655,378.826 604.536,378.395 602.713,378.309 "/>
<path fill="#3F3D56" d="M585.53,377.469h0.049c-0.012,0.007-0.025,0.011-0.039,0.01L585.53,377.469z"/>
<path fill="#A0616A" d="M64.42,187.264c0,0-13.627,27.255-34.688,33.449c-21.061,6.194,50.793,0,50.793,0
	s-3.717-19.822,1.239-22.299C86.72,195.936,64.42,187.264,64.42,187.264z"/>
<path fill="#2F2E41" d="M42.402,140.44c-0.741-6.458,2.791-12.167,7.889-12.752c0.058-0.006,0.115-0.003,0.172-0.008
	c-0.637-0.094-1.284-0.104-1.924-0.032c-5.098,0.585-8.63,6.294-7.889,12.752c0.733,6.384,5.369,11.101,10.4,10.642
	C46.735,150.415,43.049,146.075,42.402,140.44z"/>
<path fill="#2F2E41" d="M46.972,149.196c-6.156-2.085-9.813-7.715-8.167-12.575c0.019-0.055,0.046-0.105,0.066-0.16
	c-0.356,0.536-0.642,1.117-0.849,1.727c-1.646,4.86,2.011,10.49,8.167,12.575c6.087,2.061,12.331-0.12,14.062-4.866
	C57.842,149.533,52.344,151.015,46.972,149.196z"/>
<path fill="#A0616A" d="M4.373,268.588l1.821,52.472l28.494,66.898c0,0-7.433,34.688,7.433,33.449
	c14.866-1.24,1.239-34.688,1.239-34.688l-13.627-70.614l-2.478-58.226L4.373,268.588z"/>
<circle fill="#A0616A" cx="84.242" cy="178.592" r="27.255"/>
<path fill="#CFCCE0" d="M106.541,225.668l-26.859-10.73c0,0-5.351,0.82-20.217,2.059s-21.467,0.07-21.467,0.07
	S6.194,228.146,7.433,234.34c1.239,6.194,14.866,104.063,21.061,99.108s9.911-6.194,9.911-6.194l68.137-6.194V225.668z"/>
<path fill="#CFCCE0" d="M12.389,231.863H8.357c0,0-4.641,2.478-4.641,9.911S0,271.506,0,271.506h19.822L12.389,231.863z"/>
<path fill="#36363D" d="M48.935,243.632L33.972,219.46c-0.696-1.124-1.983-1.739-3.295-1.575l-3.902,0.488
	c-1.853,0.231-3.167,1.921-2.936,3.775c0.02,0.155,0.049,0.309,0.09,0.459l7.662,28.458c0,0,12.114,50.272,0.482,77.168
	l-0.482,12.029c0,0-11.15,37.165-8.672,65.659c2.478,28.494,3.716,53.271,3.716,53.271s-6.194,18.582-3.716,24.775
	c0.743,1.859,0.594,4.609,0.022,7.549c-3.494,17.943-4.396,36.297-3.901,54.57l0.163,6.018c0,0-8.672,7.434-1.239,8.672
	c7.433,1.24,30.971,3.717,30.971,3.717s4.956-8.672,2.478-9.91l7.433-40.883c0,0,12.389-17.344,11.15-28.492
	c0,0,3.716-18.584,0-27.256l1.239-54.51l4.956,65.66l-7.433,81.764c0,0-9.911,7.434-3.717,9.91
	c6.194,2.479,44.599,14.867,44.599,8.672c0-6.193-2.478-8.672-2.478-8.672l16.105-167.244l-8.672-69.375
	c0,0-58.226-4.956-53.271-70.615c0,0,14.245-29.586,28.307-35.169c0.419-0.155,0.632-0.621,0.477-1.04
	c-0.089-0.241-0.288-0.425-0.535-0.496l-5.709-1.631c-0.156-0.046-0.322-0.043-0.476,0.009
	C80.911,216.055,59.432,223.804,48.935,243.632z"/>
<path fill="#0E0E0E" d="M77.428,559.539l-0.198,1.781c-1.333,11.35-5.022,22.295-10.833,32.135
	c-2.773,4.768-4.897,10.152-3.835,14.398c2.478,9.912,1.239,13.629,1.239,13.629h19.822v-3.717l11.066,3.018
	c2.468,0.713,5.097,0.633,7.516-0.23c2.478-0.93,4.956-2.787,4.956-6.504c0-3.098-2.366-5.979-5.126-8.287
	c-5.819-4.773-10.035-11.215-12.079-18.459l-0.139-0.508l7.433-27.256H77.428z"/>
<path fill="#0E0E0E" d="M26.016,560.158l-0.198,1.781c-1.333,11.35-5.022,22.295-10.833,32.135
	c-2.774,4.768-4.897,10.152-3.836,14.4c2.478,9.91,1.239,13.627,1.239,13.627H32.21v-3.717l11.067,3.018
	c2.468,0.713,5.097,0.633,7.516-0.23c2.478-0.93,4.955-2.787,4.955-6.504c0-3.098-2.366-5.979-5.126-8.287
	c-5.819-4.773-10.035-11.215-12.079-18.459l-0.139-0.508l7.433-27.256H26.016z"/>
<path fill="#36363D" d="M89.743,183.191c0,0,19.524-11.279,27.084-11.963c0,0,2.201-4.956-0.173-9.725
	c0,0-1.152-15.299-20.249-14.705c0,0-22.556-12.218-30.128-7.23c-7.572,4.989-24.432,28.926-17.311,43.232
	c0,0-8.233,4.142-8.625,1.912c-0.392-2.229-6.508,3.76,1.567,8.919c0,0-11.303,11.442-0.315,18.604c0,0-0.503-10.148,5.87-13.216
	c6.374-3.068,0.795,0.155,0.795,0.155s-10.911,13.672,5.385,18.994c0,0-6.081-6.925,0.035-12.915c0,0-1.895,13.989,9.373,15.461
	c0,0-5.812-8.309-2.754-11.303c0,0,1.298,10.302,7.66,11.539l4.771,0.928l1.614-8.3c0,0-4.538,10.604,6.069,11.23
	c0,0-5.128-16.072,1.661-25.52C88.863,189.839,89.743,183.191,89.743,183.191z"/>
<ellipse transform="matrix(-0.7972 -0.6038 0.6038 -0.7972 7.3724 287.8079)" fill="#36363D" cx="52.032" cy="142.666" rx="9.291" ry="11.769"/>
<path fill="#0E0E0E" d="M62.146,142.072c-2.465,0.934-4.609,2.556-6.179,4.673c-1.396,1.815-2.326,3.946-2.708,6.204
	c2.465-0.934,4.609-2.556,6.179-4.673C60.834,146.46,61.764,144.33,62.146,142.072z"/>
<path fill="#CFCCE0" d="M156.733,378.062l-1.573-2.1l11.422-8.561c2.759-2.072,4.201-5.462,3.782-8.889l-5.659-45.694
	c-0.827-6.752,2.015-13.433,7.453-17.519l12.45-9.33c4.918-3.677,11.884-2.679,15.572,2.231l2.883,3.848l-2.1,1.573l-2.884-3.848
	c-2.817-3.751-8.14-4.514-11.898-1.705l-12.45,9.33c-4.687,3.521-7.136,9.277-6.423,15.096l5.658,45.695
	c0.534,4.359-1.301,8.673-4.812,11.312L156.733,378.062z"/>
<polygon fill="#CFCCE0" points="160.807,381.935 170.12,369.669 166.972,365.471 153.009,371.529 92.055,413.648 102.845,428.046 
	"/>
<path fill="#E6E6E6" d="M192.95,294.242l11.759-8.812c3.214-2.409,7.772-1.755,10.181,1.458l54.558,72.807
	c2.408,3.214,1.755,7.771-1.459,10.181l-11.759,8.812c-3.214,2.409-7.772,1.756-10.181-1.459l-54.558-72.806
	C189.083,301.208,189.736,296.65,192.95,294.242z"/>
<path opacity="0.2" enable-background="new    " d="M269.449,359.696l-1.686-2.249l-0.337-0.451
	c2.408,3.214,1.755,7.771-1.458,10.18l0,0l-11.762,8.813c-3.213,2.407-7.771,1.755-10.178-1.458l0.337,0.449l1.686,2.25
	c2.408,3.213,6.965,3.867,10.179,1.459l11.762-8.814C271.204,367.466,271.857,362.91,269.449,359.696z"/>
<path fill="#7F77FF" d="M234.56,311.631c-0.102-0.1-0.188-0.181-0.191-0.137C234.467,311.611,234.532,311.643,234.56,311.631z"/>
<path fill="#7F77FF" d="M232.71,308.71c-0.01-0.069-0.047-0.132-0.103-0.175L232.71,308.71z"/>
<path fill="#7F77FF" d="M246.013,327.162c-0.109,0.035,0.101,0.268,0.238,0.491L246.013,327.162z"/>
<path fill="#7F77FF" d="M251.768,334.568l0.098,0.13c0.062,0.016,0.125,0.024,0.188,0.027L251.768,334.568z"/>
<path fill="#7F77FF" d="M255.405,339.99c0.134,0,0.262,0.055,0.355,0.152c0.056-0.045,0.097-0.106,0.118-0.176
	C255.795,339.837,255.539,339.962,255.405,339.99z"/>
<path fill="#7F77FF" d="M266.686,355.662l-0.055,0.096c0.033,0.041,0.07,0.08,0.111,0.113L266.686,355.662z"/>
<path fill="#7F77FF" d="M229.138,303.304l0.012,0.025C229.274,303.442,229.214,303.371,229.138,303.304z"/>
<path fill="#7F77FF" d="M196.105,314.082c-0.19-0.672,0.894,0.656,0.529-0.297C196.602,313.924,195.749,313.334,196.105,314.082z"/>
<path fill="#7F77FF" d="M220.343,291.85c-0.019,0.062-0.022,0.127-0.01,0.191C220.353,292.02,220.361,291.973,220.343,291.85z"/>
<path fill="#7F77FF" d="M215.73,288.536c-0.158,0.099-0.298,0.225-0.413,0.373c0.026-0.005,0.051-0.014,0.075-0.026
	C215.472,288.739,215.589,288.619,215.73,288.536z"/>
<path fill="#7F77FF" d="M211.151,292.848c0.04-0.008,0.079-0.017,0.117-0.029l0.127-0.133L211.151,292.848z"/>
<path fill="#0E0E0E" d="M266.957,355.89c-0.155,0.188-0.458,0.434-0.595,0.352l0.27-0.484c-0.02-0.022-0.037-0.048-0.056-0.072
	c0.017-0.022,0.035-0.044,0.052-0.066l-3.883-5.184l0.101,0.007l-0.179-0.109l-0.492-0.657c0.063-0.014,0.143,0.006,0.26,0.121
	c-0.2-0.609-0.441-0.342-0.571-0.896c-0.006-0.068,0.026-0.059,0.071-0.026l-0.456-0.401c0.14,0.041,0.176-0.255,0.347,0.073
	c-0.448-0.997-1.281-1.188-1.27-1.699l0.074,0.056c-0.747-0.822-0.563-0.377-0.819-0.381l-0.415-0.554l0.106-0.72l-0.332,0.067
	c-0.083-0.129-0.246-0.384-0.114-0.413c-0.508-0.329-0.048,0.157-0.404,0.012c-0.218-0.754-1.319-1.543-1.029-1.967
	c-0.344-0.072,0.278,0.67-0.321,0.139c0.284-0.493-0.616-0.672-0.826-1.354c0.34,0.004,0.607,0.598,0.397-0.084
	c-0.608-0.051-0.704-1.105-1.113-1.506c-0.307,0.195-0.859-0.895-1.526-1.582c-0.396-0.807-0.842-1.587-1.337-2.336l0.064-0.016
	c-0.396,0.082-0.888-0.688-1.347-1.174c0.191-0.111,0.333-0.067,0.627,0.161l-0.375-0.498c-0.25-0.091-0.467-0.252-0.625-0.465
	l0.313-0.038c-0.665-0.635-1.253-1.342-1.756-2.11c-0.164,0.071-0.139,0.546-0.357,0.599l-0.339-0.453
	c0.103-0.043,0.222-0.014,0.294,0.071c-0.073-0.067-0.299-0.208-0.369-0.399l0.457,0.222c-0.21-0.45-0.308-0.087-0.524-0.411
	c0.163-0.112-0.06-0.314,0.099-0.364c0.075,0.067,0.139,0.32,0.29,0.394c-0.23-0.327-0.382-0.702-0.444-1.098
	c-0.067,0.099-0.213,0.16-0.426-0.082c-0.51-0.656,0.02-0.369-0.19-0.818c-0.23-0.078-0.434-0.588-0.679-0.422
	c-0.145-0.195-0.062-0.314-0.054-0.438c-0.362-0.266-1.234-1.584-1.194-1.008l0.049,0.101l-0.052-0.048
	c-1.08-0.951-1.622-2.443-2.561-3.485l0.081-0.058c-0.518-0.641-1.084-1.242-1.694-1.796c-0.147-0.198-0.205-0.573-0.047-0.56
	c-0.425-0.352-0.765-0.793-0.996-1.293c0.522,0.41-0.011-0.268,0.495,0.451c-0.429-0.715-0.415-0.959-1.165-1.51
	c0.384,0.091-0.119-0.69-0.416-0.961l0.204,0.574c-0.266-0.311-0.51-0.639-0.729-0.984l0.394-0.029
	c-0.693-1.6-2.385-2.034-2.618-3.474c-0.455-0.219,0.421,0.835-0.037,0.678c-0.278-0.574-0.506-1.171-0.683-1.784
	c-0.494-0.966-0.987-0.506-1.557-1.477c-0.009,0.186-0.182,0.483-0.772-0.118c-0.433-0.651-0.177-1.066,0.195-0.729
	c0.12,0.144,0.144,0.239,0.107,0.256c0.186,0.176,0.425,0.41,0.342,0.086l-0.156-0.01c-0.135-0.383-0.79-1.235-0.482-1.149
	c-0.444-0.404-0.307-0.085-0.094,0.301c-0.463-0.904-0.934-1.255-1.459-2.149c0.046,0.17,0.025,0.375-0.072,0.244
	c-0.789-1.298-0.579-0.398-1.235-1.187c-0.204-0.574,0.471-0.092-0.269-0.826c-0.28-0.578,0.172-0.295,0.399-0.153
	c-0.533-0.562-0.948-1.225-1.221-1.95l0.374,0.339c-0.191-0.18-0.364-0.38-0.515-0.596l-0.021,0.369
	c-0.141-0.257-0.288-0.455-0.206-0.51c-0.304-0.146-0.178,0.42-0.705,0.072c-0.136-0.382-0.811-0.866-0.639-1.162
	c0.645,1.039,0.172-0.297,0.831,0.497c-0.176-0.172-0.323-0.371-0.435-0.59c0.002-0.056,0.077-0.006,0.139,0.046
	c-0.474-1.102-0.606-0.215-1.325-1.186c0.234,0.016,0.102-0.426-0.047-0.561c0.289,0.392-0.097,0.364-0.474,0.088
	c-0.354-0.703-0.587-0.612-0.817-0.946l0.226,0.409c-0.236-0.019-0.45-0.343-0.818-0.741c0.083-0.12,0.371,0.335,0.304,0.145
	c-0.609-0.293-0.554-1.278-1.224-1.821c-0.136-0.382,0.244-0.23,0.105-0.551c-0.746-0.612-0.414-0.958-1.157-1.632
	c-0.021,0.37,0.056,0.375-0.546-0.041l1.105,1.195l-0.901-0.624c0.291,0.393,0.738,0.735,0.882,0.994
	c-0.453-0.28-0.375-0.274-0.393,0.031c-0.115-0.75-0.962-0.936-1.232-1.699l0.487-0.335c-0.486-1.088-1.48-1.471-2.267-2.767
	l0.209,0.45c-0.309-0.021-0.585-0.726-0.954-1.06c0.186-0.083,0.06-0.37,0.033-0.61c-0.102,0.108-0.651-0.892-1.049-0.765
	l-0.196-0.695c-0.6-0.978-1.407-0.939-2.189-2.096c0.165,0.041,0.161-0.112,0.19-0.208c0.034-0.09,0.104-0.119,0.514,0.3
	c-0.372-0.5-0.707-1.007-0.737-0.819c-0.027-0.062-0.061-0.121-0.101-0.175l-0.069-0.09c-0.025-0.026-0.058,0.049-0.089,0.073
	l-0.422,0.52c-0.207,0.316-0.477,0.587-0.792,0.795c-0.139,0.257-0.094,0.502-0.5,0.876c-0.07,0.013-0.06-0.077-0.06-0.077
	c0.018,0.122-0.438,0.602-0.011,0.499c-1.29,0.385-2.414,2.338-3.552,2.638c-0.586,0.616-1.312,1.34-1.89,1.85
	c-0.001-0.077-0.063-0.076,0.062-0.156c-0.924,0.553-0.125,0.862-1.19,1.48c-0.68,0.15,0.384-0.543,0.01-0.39
	c-0.544-0.393-1.063,1.005-1.941,1.212l0.129-0.152c-0.617,0.218-1.029,1.137-1.865,1.716c0,0,0.004-0.076-0.055-0.082
	c-0.574,0.84-1.279,1.584-2.087,2.203c0.101-0.383,0.284-0.366-0.018-0.469c-0.336,0.283,0.347,0.262-0.327,0.829
	c-0.313,0.052-0.898,0.317-1.125,0.134l0.666-0.484c-0.545-0.044-0.867,0.617-1.261,0.809l-0.042-0.16
	c-1.01,0.751-0.817,1.077-1.972,1.793l0.181,0.024c-0.419,0.729-0.644,0.143-1.122,0.779l-0.396-0.22
	c-0.629,0.613-1.3,1.181-2.007,1.702c0.469-0.584,0.99-1.125,1.558-1.614c-0.571,0.292-1.086,0.68-1.524,1.147
	c0.151-0.13,0.314-0.338,0.511-0.382c-0.469,0.666-1.102,1.2-1.838,1.548c-0.071-0.393-0.912-0.013-1.93,0.485l-0.385,0.188
	l-0.196,0.096c-0.063,0.032-0.167,0.056-0.083,0.122c0.157,0.224,0.308,0.446,0.44,0.658c0.236,0.332,0.404,0.707,0.494,1.103
	c0.215,0.245,0.428,0.487,0.641,0.729c0.142,0.162,0.277,0.33,0.408,0.502c0.261,0.345,0.505,0.707,0.748,1.081
	c0.485,0.748,0.969,1.542,1.588,2.331c0.05-0.927,0.365,0.458,0.78-0.007c0.307,0.346,0.406,0.494,0.403,0.553l-0.038-0.092
	l0.038,0.099l0.001-0.001l0.556,1.35c0.059,0.375-0.375-0.275-0.458-0.158c0.576,0.848,0.05,0.499,0.326,1.139
	c0.092-0.242,0.464,0.097,0.747,0.613l-0.267-0.826c1.118,0.949,0.331,1.297,1.453,2.257l-0.427-0.249
	c0.534,0.523,1.633,2.186,2.461,2.471c0.022,0.146-0.008,0.386-0.239,0.152c1.001,1.458,2.778,2.834,3.359,4.115l-0.2-0.018
	c0.232,0.238,0.569,0.291,0.696,0.711c-0.062,0.021-0.199-0.016-0.114,0.111c0.369,0.25,0.684,0.572,0.927,0.945l-0.358-0.197
	c0.877,1.497,1.915,1.871,2.864,2.967c-0.354,0.262,0.345,1.433,0.693,2.018l-0.064,0.018c1.106,1.379,2.306,2.68,3.59,3.895
	c0.31,1.211,2.184,3.248,3.082,4.894c-0.106-0.274,0.302-0.169,0.536,0.068c0.189,0.401,0.966,0.78,0.601,0.967l-0.087-0.129
	c-0.12,0.5,0.501,1.152,0.911,1.718l0.492-0.225c0.481,1.923,3.097,3.662,3.144,4.872c0.37,0.273,0.696,0.712,1.063,0.981
	l-0.241,0.151c0.599,0.94,1.257,1.843,1.972,2.698l-0.347-0.125c0.496,0.692,1.298,0.371,1.782,0.989l-0.196,0.442
	c0.896,1.186,1.501,2.611,2.688,3.557c-0.064,0.018-0.188,0.056-0.346-0.127c0.411,0.566,1.394,2.337,1.705,1.785
	c-0.292,0.241,0.89,1.25,1.504,1.792l-0.298,0.067c0.56,0.186,1.056,0.527,1.428,0.984c0.105,0.201-0.061,0.291-0.183,0.01
	c0.331,0.686,0.561,0.309,0.984,1.121l-0.345-0.162c0.189,0.357,0.515,0.622,0.903,0.734c0.379,0.32,0.818,1.209,0.684,1.451
	c0.354,0.061,0.658,0.287,0.815,0.61c-0.04,0.106-0.186,0.009-0.259-0.04c0.619,1.143,1.405,1.335,1.716,2.207
	c-0.055,0.059-0.072,0.143-0.044,0.219c-0.606-0.821-1.087-1.488-1.025-1.439c-0.206,0.154,0.253,0.842-0.424,0.529
	c0.758,0.465,1.42,1.07,1.952,1.783c0.006,0.045,0.004,0.092-0.007,0.138l-0.073-0.05c0.085,0.15,0.2,0.279,0.338,0.383
	c0.096,0.201,0.209,0.395,0.337,0.578c-0.113,0.203,0.476,0.826,0.714,1.16c0.205-0.195,0.491,0.263,0.375-0.28
	c0.023,0.064-0.073-0.042-0.247-0.253c-0.039-0.046-0.082-0.087-0.128-0.123l0.037,0.008l-0.628-0.807
	c0.356,0.16,0.63,0.461,0.756,0.83c0.271,0.061,0.559,0.136,0.707,0.188c0.024,0.686,0.504,1.681,0.402,1.947
	c0.439,0.454,0.903,1.03,1.37,1.531c0.225,0.244,0.463,0.477,0.714,0.693c0.232,0.25,0.51,0.451,0.819,0.594
	c0.127,0.121,0.217,0.275,0.258,0.445c0.04,0.146,0.103,0.133,0.176,0.174c-0.071,0.043-0.147,0.076-0.227,0.1l-0.149-0.163
	c-0.071-0.089-0.158-0.166-0.255-0.226c0.198,0.131,0.332,0.616,0.718,0.311l0.995-0.404c0.231-0.087,0.452-0.198,0.659-0.334
	c0.144-0.1,0.235-0.198,0.243-0.3c0.905-0.181-0.357,0.507,0.788-0.013l-0.117,0.168c2.556-0.385,3.302-2.41,6.018-3.068
	c-0.189,0.051-0.282,0.078-0.347,0.043c2.914-1.227,5.22-3.688,7.879-5.264c0.742-0.479,0.644-0.736,0.919-1.223l0.343,0.097
	l0.435-0.868c0.737-1.07,2.123-1.035,2.891-2.567l-0.294,0.015c0.435-0.396,1.141-1.461,1.257-1.23
	c-0.025-0.157,0.056-0.313,0.199-0.383l0.131,0.09c0.248-0.42,0.476-0.854,0.713-1.277c0.79-0.791,0.389,0.545,1.424-0.721
	C266.816,356.898,267.181,355.773,266.957,355.89z M261.583,348.814c0.008,0.027,0.011,0.057,0.009,0.085l-0.199-0.266
	C261.456,348.691,261.516,348.746,261.583,348.814z M237.328,368.982l0.047,0.005c-0.058,0.015-0.12,0.015-0.178-0.002
	c-0.195-0.194-0.207-0.302-0.183-0.366C237.095,368.719,237.193,368.834,237.328,368.982L237.328,368.982z"/>
<path fill="#7F77FF" d="M237.787,369.158c0.03,0.023,0.058,0.049,0.084,0.078c-0.013-0.058-0.029-0.113-0.047-0.169l-0.129-0.024
	L237.787,369.158z"/>
<path fill="#7F77FF" d="M246.345,327.843c0.01,0.027,0.015,0.057,0.014,0.086c0-0.018,0-0.035,0.003-0.053L246.345,327.843z"/>
<path fill="#7F77FF" d="M259.069,344.393c-0.546-1.269-0.028,0.367-0.83-0.776l0.573,0.902
	C258.788,344.304,258.758,344.021,259.069,344.393z"/>
<path fill="#7F77FF" d="M256.574,340.767c-0.297-0.23-0.37-0.286-0.189,0.113C256.768,341.308,256.507,340.78,256.574,340.767z"/>
<path fill="#7F77FF" d="M242.072,321.779l0.239-0.107C242.017,321.34,242.229,321.727,242.072,321.779z"/>
<polygon fill="#7F77FF" points="238.265,315.803 237.749,315.269 238.12,315.669 "/>
<path fill="#7F77FF" d="M211.747,291.976l0.31,0.143C212.237,291.876,212.043,291.573,211.747,291.976z"/>
<path fill="#7F77FF" d="M197.524,303.143c0.302-0.117,0.595-0.259,0.875-0.423C198.056,302.711,197.73,302.869,197.524,303.143z"/>
<polygon fill="#7F77FF" points="217.624,343.108 218.087,343.58 217.917,343.324 "/>
<path fill="#A0616A" d="M89.854,264.872l1.821,52.472l28.494,66.898c0,0-7.433,34.688,7.433,33.449
	c14.866-1.239,1.239-34.688,1.239-34.688l-13.627-70.614l-2.478-58.226L89.854,264.872z"/>
<polygon fill="#CFCCE0" points="100.347,228.146 101.028,223.466 106.541,225.669 123.885,252.923 87.958,271.506 "/>
<g>
	<rect x="641.576" y="221.819" fill="#FAFAFA" width="16.758" height="11.465"/>
	<rect x="675.093" y="221.819" fill="#FAFAFA" width="16.758" height="11.465"/>
	<rect x="510.148" y="221.819" fill="#FAFAFA" width="113.784" height="11.465"/>
	<rect x="581.596" y="295.911" fill="#FAFAFA" width="16.757" height="11.467"/>
	<rect x="615.113" y="295.911" fill="#FAFAFA" width="16.76" height="11.467"/>
	<rect x="450.17" y="295.911" fill="#FAFAFA" width="113.782" height="11.467"/>
	<rect x="582.477" y="247.396" fill="#FAFAFA" width="47.632" height="11.469"/>
	<rect x="646.866" y="247.396" fill="#FAFAFA" width="47.632" height="11.469"/>
	<rect x="419.299" y="247.396" fill="#FAFAFA" width="16.757" height="11.469"/>
	<rect x="452.815" y="247.396" fill="#FAFAFA" width="113.786" height="11.469"/>
	<rect x="483.688" y="272.094" fill="#FAFAFA" width="47.63" height="11.469"/>
	<rect x="419.299" y="272.094" fill="#FAFAFA" width="47.63" height="11.469"/>
	<rect x="677.739" y="272.094" fill="#FAFAFA" width="16.759" height="11.469"/>
	<rect x="547.196" y="272.094" fill="#FAFAFA" width="113.784" height="11.469"/>
</g>
</svg>
